<?xml version="1.0" encoding="utf-8"?>
<!-- Generator: Adobe Illustrator 21.0.2, SVG Export Plug-In . SVG Version: 6.00 Build 0)  -->
<svg version="1.1" id="Logo" xmlns="http://www.w3.org/2000/svg" xmlns:xlink="http://www.w3.org/1999/xlink" x="0px" y="0px"
	 viewBox="0 0 150 150" style="enable-background:new 0 0 150 150;" xml:space="preserve">
<style type="text/css">
	.st0{fill:none;}
	.st1{fill:#CFBBBA;}
	.st2{fill:#D0D2D3;}
	.st3{fill:url(#SVGID_1_);}
	.st4{fill:#FFFFFF;}
	.st5{fill:url(#SVGID_2_);}
	.st6{fill:url(#SVGID_3_);}
	.st7{fill:url(#SVGID_4_);}
	.st8{fill:#262A47;}
	.st9{fill:url(#SVGID_5_);}
	.st10{fill:url(#SVGID_6_);}
	.st11{fill:url(#SVGID_7_);}
	.st12{fill:url(#SVGID_8_);}
	.st13{fill:url(#SVGID_9_);}
	.st14{fill:url(#SVGID_10_);}
	.st15{fill:url(#SVGID_11_);}
	.st16{fill:url(#SVGID_12_);}
	.st17{fill:url(#SVGID_13_);}
	.st18{fill:#50556C;}
	.st19{fill:url(#SVGID_14_);}
	.st20{fill:url(#SVGID_15_);}
	.st21{fill:url(#SVGID_16_);}
	.st22{fill:url(#SVGID_17_);}
	.st23{fill:url(#SVGID_18_);}
	.st24{fill:url(#SVGID_19_);}
	.st25{fill:url(#SVGID_20_);}
	.st26{fill:url(#SVGID_21_);}
	.st27{fill:url(#SVGID_22_);}
	.st28{fill:url(#SVGID_23_);}
</style>
<pattern  x="-15.4" y="0.7" width="14.2" height="14.2" patternUnits="userSpaceOnUse" id="New_Pattern_Swatch_1" viewBox="0 -14.2 14.2 14.2" style="overflow:visible;">
	<g>
		<rect y="-14.2" class="st0" width="14.2" height="14.2"/>
		<rect y="-14.2" class="st1" width="14.2" height="14.2"/>
	</g>
</pattern>
<rect x="-8" y="-1.3" class="st2" width="158.8" height="156.1"/>
<g>
	<g>
		
			<pattern  id="SVGID_1_" xlink:href="#New_Pattern_Swatch_1" patternTransform="matrix(1.9781 0.6227 -0.6227 1.9781 1990.2223 12156.9531)">
		</pattern>
		<polygon class="st3" points="246.9,51.5 255.8,94.9 246.6,77.2 241.5,52.6 		"/>
		<polygon class="st4" points="237.1,81.8 224.8,88.3 223.8,86.4 236.1,79.9 		"/>
		
			<pattern  id="SVGID_2_" xlink:href="#New_Pattern_Swatch_1" patternTransform="matrix(1.9781 0.6227 -0.6227 1.9781 1990.2223 12156.9531)">
		</pattern>
		<polygon class="st5" points="243.5,32.9 246.9,49.5 240.7,50.8 237.3,34.2 		"/>
		
			<pattern  id="SVGID_3_" xlink:href="#New_Pattern_Swatch_1" patternTransform="matrix(1.9781 0.6227 -0.6227 1.9781 1990.2223 12156.9531)">
		</pattern>
		<path class="st6" d="M236.9,76.7l-4.3,2.3c-0.3-1-0.5-1.8-0.6-2.3c-0.3-2.2-0.2-4.1-0.1-5.1l1.9-1L236.9,76.7z"/>
		
			<pattern  id="SVGID_4_" xlink:href="#New_Pattern_Swatch_1" patternTransform="matrix(1.9781 0.6227 -0.6227 1.9781 1990.2223 12156.9531)">
		</pattern>
		<polygon class="st7" points="171.6,82.1 221.6,112.9 221.3,113.4 170.9,82.4 		"/>
		<polygon class="st8" points="223.7,104.7 224.3,105.8 223.5,105.4 221.7,103.5 		"/>
		
			<pattern  id="SVGID_5_" xlink:href="#New_Pattern_Swatch_1" patternTransform="matrix(1.9781 0.6227 -0.6227 1.9781 1990.2223 12156.9531)">
		</pattern>
		<polygon class="st9" points="232.6,68.5 231,69.4 220.4,64.9 220.1,62.9 229,61.5 		"/>
		<path class="st4" d="M242,25.8l1.2,5.7l-6.2,1.3l-1.2-5.7c-0.2-0.8,0.3-1.6,1.1-1.7l3.3-0.7C241,24.5,241.8,25,242,25.8z"/>
		
			<pattern  id="SVGID_6_" xlink:href="#New_Pattern_Swatch_1" patternTransform="matrix(1.9781 0.6227 -0.6227 1.9781 1990.2223 12156.9531)">
		</pattern>
		<path class="st10" d="M225.1,82.8l-4.6,2.4l-3.2-6.1l2-1c0.6,0.4,1.6,1.2,3.5,2.6C223.9,81.5,224.6,82.3,225.1,82.8z"/>
		
			<pattern  id="SVGID_7_" xlink:href="#New_Pattern_Swatch_1" patternTransform="matrix(1.9781 0.6227 -0.6227 1.9781 1990.2223 12156.9531)">
		</pattern>
		<path class="st11" d="M226.9,107.3l-33-63.3c-3.7-7.1-0.9-16,6.2-19.7c7.1-3.7,16-0.9,19.7,6.2l25.1,48.2l3.3,6.3l7.9,15.2
			l0.5,0.9l0.7,1.4l1.3,2.4c0.5,1,0.9,2,1.2,3c1.7,6.4-1.2,13.5-7.4,16.7c-5.9,3.1-12.9,1.7-17.2-2.8c-0.3-0.2-0.5-0.5-0.7-0.8
			c-0.3-0.3-0.5-0.6-0.7-0.9c-0.3-0.4-0.5-0.7-0.7-1.1c-0.1-0.2-0.2-0.4-0.3-0.5l-0.6-1.2l-1.4-2.7l-0.1-0.2l-0.1-0.2l-0.6-1.1
			l-0.5-0.9l-2-3.8L226.9,107.3z"/>
		
			<pattern  id="SVGID_8_" xlink:href="#New_Pattern_Swatch_1" patternTransform="matrix(1.9781 0.6227 -0.6227 1.9781 1990.2223 12156.9531)">
		</pattern>
		<polygon class="st12" points="212.7,102.5 173.8,78.6 173.7,77.8 173.8,77.8 210.9,100.7 		"/>
		
			<pattern  id="SVGID_9_" xlink:href="#New_Pattern_Swatch_1" patternTransform="matrix(1.9781 0.6227 -0.6227 1.9781 1990.2223 12156.9531)">
		</pattern>
		<polygon class="st13" points="219.5,63 220.1,62.9 220.4,64.9 218.1,76.1 216.3,77.1 212.6,70.1 		"/>
		<g>
			<path class="st4" d="M224.3,74.9c0.5,0.9,1.6,1.2,2.5,0.8c0.9-0.5,1.3-1.6,0.8-2.5c-0.3-0.5-0.7-0.8-1.3-1l-1.6-3.1l5.6,2.4
				c-0.1,1.2-0.2,3.2,0.2,5.7c0.1,0.8,0.5,2,0.8,3L228,82c-0.6-0.8-1.6-1.8-3-2.9c-1.7-1.3-2.9-2.2-3.7-2.7l1.3-6.1l1.6,3.1
				C224,73.8,224,74.4,224.3,74.9z"/>
			<path class="st8" d="M221.3,85.5l4.6-2.4c-0.5-0.6-1.2-1.4-2.3-2.2c-1.9-1.4-2.9-2.2-3.5-2.6l-2,1L221.3,85.5z M225,79
				c1.4,1.1,2.4,2.2,3,2.9l3.2-1.7c-0.3-1-0.6-2.2-0.8-3c-0.4-2.5-0.3-4.6-0.2-5.7l-5.6-2.4l1.6,3.1c0.5,0.1,1,0.5,1.3,1
				c0.5,0.9,0.1,2-0.8,2.5c-0.9,0.5-2,0.1-2.5-0.8c-0.3-0.5-0.3-1.1-0.1-1.6l-1.6-3.1l-1.3,6.1C222.1,76.8,223.3,77.8,225,79z
				 M232.6,71.8c-0.1,1-0.2,2.9,0.1,5.1c0.1,0.5,0.3,1.2,0.6,2.3l4.3-2.3l-3.2-6.1L232.6,71.8z M218.9,76.3l2.3-11.2l10.5,4.6
				l1.7-0.9l-3.6-7l-8.9,1.4l-0.6,0.1l-6.9,7l3.6,7L218.9,76.3z M243,82.1l-20.5,10.7l-12-23l8.6-8.8l11.9-1.9L243,82.1z"/>
			<g id="XMLID_1_">
				<g>
					<polygon class="st4" points="236.9,80.2 237.9,82.1 225.6,88.5 224.6,86.6 					"/>
				</g>
				<g>
				</g>
			</g>
		</g>
		
			<pattern  id="SVGID_10_" xlink:href="#New_Pattern_Swatch_1" patternTransform="matrix(1.9781 0.6227 -0.6227 1.9781 1990.2223 12156.9531)">
		</pattern>
		<path class="st14" d="M224.8,111.9l-1.6-1.6l0,0l-0.1,0l-1.9-2l-1.1-1.2l-1.8-1.8l-6.1-6.3l-11.8-12.2l1.8-1.8
			c1.4,1.4,4.9,5.1,6.3,6.6c1.5,1.5,4.9,5.1,8.6,8.9c1.3,1.3,2.5,2.6,3.8,3.9c0.5,0.5,1,1,1.5,1.5c0.9,1,1.8,1.9,2.6,2.7l0.8,1.6
			l1.5,2.9l0.6,1.1l0.5,0.9l-0.2,0.4c-0.2-0.2-0.4-0.4-0.6-0.6c-0.1-0.1-0.3-0.2-0.4-0.4l-0.4-0.4l-0.3-0.3L224.8,111.9z"/>
		<polygon class="st4" points="200.8,83.4 198.7,85.4 196.5,83.6 199.1,81.1 		"/>
		
			<pattern  id="SVGID_11_" xlink:href="#New_Pattern_Swatch_1" patternTransform="matrix(1.9781 0.6227 -0.6227 1.9781 1990.2223 12156.9531)">
		</pattern>
		<path class="st15" d="M197.8,79.4l-3,2.9l-11-9c0.5-0.7,2-2.5,2.6-3c0.5-0.5,2.2-1.7,2.8-2.2L197.8,79.4z"/>
		<path class="st4" d="M187.5,66.6c-0.1,0-0.1,0.1-0.2,0.1l-5.5-5.5c0.4,0.2,0.8,0.5,1,0.8L187.5,66.6z"/>
		<path class="st4" d="M185.3,68.3c-0.1,0.1-0.2,0.2-0.3,0.2l-7.7-8c0.1-0.1,0.2-0.2,0.3-0.2L185.3,68.3z"/>
		<path class="st4" d="M184.3,69.3c-0.1,0.1-0.2,0.2-0.3,0.3l-7.7-7.9c0.1-0.1,0.1-0.2,0.2-0.4L184.3,69.3z"/>
		<path class="st4" d="M176.2,63.1l7.1,7.4c-0.1,0.1-0.2,0.2-0.2,0.3l-6.8-7c0,0,0,0,0,0C176.2,63.5,176.2,63.3,176.2,63.1z"/>
		
			<pattern  id="SVGID_12_" xlink:href="#New_Pattern_Swatch_1" patternTransform="matrix(1.9781 0.6227 -0.6227 1.9781 1990.2223 12156.9531)">
		</pattern>
		<path class="st16" d="M191,45.5c-1.8-3.5-1.9-7.6-0.6-11.2c-0.6,3.5-0.2,7.3,1.6,10.7l29.6,56.9c-0.9-0.9-1.8-1.8-2.6-2.7
			L191,45.5z"/>
		<path class="st4" d="M179.5,60.2l6.9,7.2c-0.1,0.1-0.2,0.2-0.3,0.2l-7.2-7.5C179.1,60.2,179.3,60.2,179.5,60.2z"/>
		
			<pattern  id="SVGID_13_" xlink:href="#New_Pattern_Swatch_1" patternTransform="matrix(1.9781 0.6227 -0.6227 1.9781 1990.2223 12156.9531)">
		</pattern>
		<polygon class="st17" points="173.2,79.5 215.8,105.7 221.3,111.4 172.1,81.1 172.2,80 		"/>
		<path class="st4" d="M182.2,71.7l-4.5-4.8c-0.3-0.3-0.5-0.7-0.7-1.1l5.4,5.7C182.2,71.6,182.2,71.6,182.2,71.7z"/>
		<polygon class="st4" points="171.4,77.3 171.5,77.9 170.2,78.7 170,80.5 169.4,80.7 166.7,77.5 167.3,76.5 		"/>
		<path class="st8" d="M243.5,32.9l-6.2,1.3l3.4,16.6l6.2-1.3L243.5,32.9z M176.3,63.7l6.8,7c0.1-0.1,0.1-0.2,0.2-0.3l-7.1-7.4
			C176.2,63.3,176.2,63.5,176.3,63.7C176.3,63.7,176.3,63.7,176.3,63.7z M185.3,68.3l-7.7-7.9c-0.1,0-0.2,0.1-0.3,0.2l7.7,8
			C185.1,68.5,185.2,68.4,185.3,68.3z M163.6,75.1l2.5,2.2l1-1.2L163.6,75.1z M199.1,81.1l-2.6,2.5l2.2,1.8l2.1-2L199.1,81.1z
			 M171.6,82.1l-0.7,0.3l50.4,31l0.3-0.5L171.6,82.1z M190.4,34.3c-1.3,3.7-1.2,7.7,0.6,11.2l28,53.6c0.9,0.9,1.8,1.8,2.6,2.7
			L192,45C190.2,41.6,189.7,37.8,190.4,34.3z M187.5,66.6l-4.6-4.7c-0.3-0.3-0.6-0.5-1-0.8l5.5,5.5
			C187.4,66.7,187.5,66.7,187.5,66.6z M186.5,67.4l-6.9-7.2c-0.2,0-0.4-0.1-0.6-0.1l7.2,7.5C186.3,67.6,186.4,67.5,186.5,67.4z
			 M184.3,69.3l-7.7-8c-0.1,0.1-0.1,0.2-0.2,0.4l7.7,7.9C184.1,69.5,184.2,69.4,184.3,69.3z M167.8,76.3l-1.1,1.5l2.8,3l0.6-0.3
			l0.2-1.8l1.3-0.7l-0.1-0.7L167.8,76.3z M193.9,44l33,63.3l0.5,0.9l2,3.8l0.5,0.9l0.6,1.1l0.1,0.2l0.1,0.2l1.4,2.7l0.6,1.2
			c0.1,0.2,0.2,0.4,0.3,0.5c0.2,0.4,0.5,0.8,0.7,1.1c0.2,0.3,0.5,0.6,0.7,0.9c0.2,0.3,0.5,0.5,0.7,0.8c4.4,4.5,11.4,5.9,17.2,2.8
			c6.2-3.2,9.1-10.2,7.4-16.7c-0.3-1-0.7-2-1.2-3l-1.3-2.4l-0.7-1.4l-0.5-0.9L248.2,85l-3.3-6.3l-25.1-48.2
			c-3.7-7.1-12.6-9.9-19.7-6.2C193,28,190.2,36.9,193.9,44z M221.3,111.4l-5.6-5.7l-42.6-26.2l-1,0.5l-0.1,1.1L221.3,111.4z
			 M224.3,105.8l-0.6-1.1l-2-1.2l1.8,1.8L224.3,105.8z M249.7,49.4c0.2,0.4,0.6,0.5,0.7,0.5c0.1,0,0.2-0.3,0.1-0.5l-3.7-17.9
			c-0.1-0.2-0.3-0.4-0.5-0.4l-1.2,0.3l3.5,17.1c0-0.3,0.1-0.7,0.3-1.2l0.9,0.4C249.5,48.4,249.5,49,249.7,49.4z M221,104.3
			c-1.2-1.3-2.5-2.6-3.8-3.9c-3.7-3.8-7.1-7.3-8.6-8.9c-1.4-1.4-4.9-5.1-6.3-6.6l-1.8,1.8L212.3,99l6.1,6.3l1.8,1.8l1.1,1.2l1.9,2
			l0.1,0l0,0l1.6,1.6l1.7,1.8l0.3,0.3l0.4,0.4c0.1,0.1,0.3,0.2,0.4,0.4c0.2,0.2,0.4,0.4,0.6,0.6l0.2-0.4l-0.5-0.9l-0.6-1.1l-1.5-2.9
			l-0.8-1.6c-0.8-0.8-1.7-1.7-2.6-2.7C222,105.4,221.5,104.8,221,104.3z M246.6,77.2l9.2,17.7l-9-43.4l-5.3,1.1L246.6,77.2z
			 M223.7,113.8l-0.5,0.8l2.1,1.3l0.3,0.2l0.1-0.2l-0.9-0.9L223.7,113.8z M242,25.8c-0.2-0.8-0.9-1.3-1.7-1.1l-3.3,0.7
			c-0.8,0.2-1.3,0.9-1.1,1.7l1.2,5.7l6.2-1.3L242,25.8z M239.2,53.1l-5.3-25.7c-0.4-1.8,0.8-3.6,2.6-4l3.3-0.7
			c1.8-0.4,3.6,0.8,4,2.6l1.1,5.1l1.2-0.3c0.7-0.2,1.5,0.3,1.6,1.1l3.7,17.9c0.1,0.5,0,1-0.4,1.4c-0.2,0.2-0.3,0.3-0.5,0.3
			c-0.1,0-0.2,0-0.4,0c-0.4-0.1-0.9-0.4-1.3-0.9l0.2,1.1l-0.4,0.1l10.3,50.1l1.3,2.6c4.3,8.2,1.1,18.3-7.1,22.6
			c-0.6,0.3-1.1,0.5-1.7,0.8l0.1,0.1c-8.9,4.6-19.5,1.7-23.8-6.5l-0.6-1.2l-7-4.3l0,0l-51.3-31.6l-0.1-0.3l-8.9-10.6l13.7,2.7
			l0.2-0.1l30.9,19l-5.9-6.1l-0.1,0.1l-16.6-13.4c-0.3-0.3-0.5-0.6-0.6-1l-5.5-5.7c-1-1-1.8-2.6-2-4.2c-0.3-1.9,0.1-3.5,1.1-4.6
			l0.4-0.4c1.4-1.3,3.6-1.4,5.5-0.8c1.3,0.4,2.5,1.1,3.2,1.9l5.5,5.7c0.4,0.1,0.7,0.4,0.9,0.7L203.2,83l0.1-0.1c0,0,5.1,5.4,6.9,7.1
			c0.8,0.8,2,2.1,3.6,3.7l-24.6-47.2c-4.3-8.2-0.5-18.6,8.3-23.2l0.1,0.1c0.5-0.4,1.1-0.7,1.6-1c8.2-4.3,18.3-1.1,22.6,7.1
			l21.6,41.4L239.6,53L239.2,53.1z M189.2,68.1c-0.6,0.5-2.3,1.7-2.8,2.2c-0.6,0.6-2.1,2.4-2.6,3l11,9l3-2.9L189.2,68.1z
			 M238.6,126.8c-2.1-1-4-2.4-5.6-4.2c-0.3,0-0.7-0.1-1-0.3l-1.1-0.6C232.8,124.2,235.5,125.9,238.6,126.8z M173.8,77.8L173.8,77.8
			l0,0.8l39,24l-1.8-1.9L173.8,77.8z M176.9,65.8c0.2,0.4,0.4,0.8,0.7,1.1l4.5,4.8c0-0.1,0.1-0.1,0.1-0.2L176.9,65.8z"/>
	</g>
	<g>
		<path class="st4" d="M183,61.9c-0.3-0.3-0.6-0.5-1.1-0.8l-0.5-0.3l5.9,6l0.1,0c0.1,0,0.1-0.1,0.2-0.1l0.1-0.1L183,61.9z
			 M187.4,66.6l-4.8-4.9c0.1,0.1,0.2,0.2,0.3,0.3L187.4,66.6C187.4,66.6,187.4,66.6,187.4,66.6z"/>
		<path class="st4" d="M176.8,65.9c0.2,0.5,0.5,0.8,0.7,1.1l4.5,4.8l0.1,0.1l0.1-0.2c0,0,0-0.1,0.1-0.1l0-0.1l-5.8-6.2L176.8,65.9z
			 M182.2,71.5C182.2,71.5,182.2,71.5,182.2,71.5l-4.5-4.7c-0.1-0.1-0.2-0.2-0.3-0.4L182.2,71.5z"/>
		<path class="st4" d="M179.6,60.1L179.6,60.1c-0.3,0-0.4-0.1-0.6-0.1l-0.2,0l7.4,7.6l0.1,0.1l0.1-0.1c0.1,0,0.1-0.1,0.2-0.1
			c0.1,0,0.1-0.1,0.2-0.1l0.1-0.1L179.6,60.1L179.6,60.1z M186.3,67.4C186.2,67.5,186.2,67.5,186.3,67.4l-7.1-7.2c0.1,0,0.2,0,0.3,0
			L186.3,67.4C186.3,67.4,186.3,67.4,186.3,67.4z"/>
		<path class="st4" d="M177.7,60.3L177.7,60.3c-0.2,0.1-0.3,0.1-0.4,0.2l-0.1,0.1l7.8,8l0.1,0.1l0.1-0.1c0,0,0.1-0.1,0.1-0.1
			c0.1-0.1,0.1-0.1,0.2-0.2l0.1-0.1L177.7,60.3L177.7,60.3z M185.1,68.4C185.1,68.4,185.1,68.4,185.1,68.4l-7.6-7.8
			c0.1,0,0.1-0.1,0.2-0.1l7.6,7.8C185.2,68.3,185.1,68.4,185.1,68.4z"/>
		<path class="st4" d="M176.6,61.2L176.6,61.2c-0.1,0.2-0.2,0.3-0.3,0.5l0,0.1l7.7,8l0.1,0.1l0.1-0.1c0.1-0.1,0.2-0.2,0.3-0.3
			l0.1-0.1L176.6,61.2L176.6,61.2z M184,69.5l-7.5-7.8c0-0.1,0.1-0.1,0.1-0.2l7.6,7.8C184.1,69.4,184.1,69.4,184,69.5z"/>
		<path class="st4" d="M176.1,63.1c0,0.1,0,0.1,0,0.2c0,0.1,0,0.3,0,0.4l0,0l0,0l0,0l6.8,7.1l0.1,0.1l0.1-0.1c0,0,0.1-0.1,0.1-0.1
			c0-0.1,0.1-0.1,0.2-0.2l0.1-0.1l-7.4-7.6L176.1,63.1z M183.2,70.5c0,0-0.1,0.1-0.1,0.1c0,0,0,0,0,0l-6.7-6.9v0c0-0.1,0-0.2,0-0.3
			L183.2,70.5z"/>
	</g>
	
		<text transform="matrix(0.8903 -0.4555 0.4555 0.8903 227.9729 102.5352)" class="st8" style="font-family:'BrandonGrotesque-Black'; font-size:13.4128px;">MH</text>
</g>
<g>
	<g>
		<text transform="matrix(1 0 0 1 -4.4528 -71.2985)"><tspan x="0" y="0" class="st8" style="font-family:'BrandonGrotesque-Black'; font-size:30.9463px;">MEGAN HEL</tspan><tspan x="176.4" y="0" class="st8" style="font-family:'BrandonGrotesque-Black'; font-size:30.9463px;">W</tspan><tspan x="204.5" y="0" class="st8" style="font-family:'BrandonGrotesque-Black'; font-size:30.9463px;">IG</tspan><tspan x="0" y="21" class="st8" style="font-family:'BrandonGrotesque-Black'; font-size:16.8945px;">DESIGNER &amp; ILLUSTRATOR</tspan></text>
	</g>
</g>
<g>
	<circle class="st8" cx="96.3" cy="99.1" r="28.7"/>
	<g>
		<g>
			<path class="st2" d="M114.9,75.5l-2.1,0c0,0.2,0,0.5,0.1,0.7l2,0L114.9,75.5z"/>
			<g>
				
					<rect x="112.1" y="46" transform="matrix(0.9998 -1.907842e-02 1.907842e-02 0.9998 -0.9283 2.2126)" class="st1" width="6.7" height="7.4"/>
				<g>
					<path class="st18" d="M111.7,91c-1.3,0.9-3,1.3-4.5,1c-1.6-0.3-2.9-1.1-3.8-2.4c-0.9-1.3-1.3-2.9-1-4.5l3.1-25.4
						c0.3-1.9-0.1-3.8-1.2-5.4c-1.1-1.6-2.7-2.6-4.6-3c-1.9-0.3-3.8,0.1-5.4,1.2c-1.6,1.1-2.6,2.7-3,4.6l-2.2,12.3l1.9,0.3l2.2-12.3
						c0.2-1.4,1-2.6,2.2-3.4c0.7-0.5,1.5-0.8,2.3-0.9c0.5-0.1,1.1-0.1,1.6,0c1.4,0.2,2.6,1,3.4,2.2c0.8,1.2,1.1,2.5,0.8,4l-3.1,25.4
						c-0.4,2.1,0.1,4.2,1.3,5.9c1.2,1.7,3,2.9,5.1,3.2c0.2,0,0.4,0.1,0.6,0.1l0,0c1.9,0.2,3.8-0.3,5.4-1.4c1.6-1.2,2.7-2.8,3.1-4.8
						c0.2-1.2,0.3-8.2,0.3-10.2l-1.9,0c0,3.7-0.2,9-0.3,9.9C113.8,88.9,113,90.2,111.7,91z"/>
					<path class="st18" d="M116.3,77.7c0,2-0.1,9-0.3,10.2c-0.3,1.9-1.4,3.6-3.1,4.8c-1.6,1.1-3.5,1.6-5.4,1.4l0,0
						c-0.2,0-0.4,0-0.6-0.1c-2.1-0.4-3.9-1.5-5.1-3.2c-1.2-1.7-1.7-3.8-1.3-5.9l3.1-25.4c0.3-1.4,0-2.8-0.8-4
						c-0.8-1.1-2-1.9-3.4-2.2c-0.5-0.1-1.1-0.1-1.6,0c-0.8,0.1-1.6,0.4-2.3,0.9c-1.1,0.8-1.9,2-2.2,3.4l-2.2,12.3l-1.9-0.3l2.2-12.3
						c0.3-1.9,1.4-3.5,3-4.6c1.6-1.1,3.5-1.5,5.4-1.2c1.9,0.3,3.5,1.4,4.6,3c1.1,1.6,1.5,3.5,1.2,5.4l-3.1,25.4
						c-0.3,1.6,0,3.2,1,4.5c0.9,1.3,2.3,2.2,3.8,2.4c1.6,0.3,3.2-0.1,4.5-1c1.2-0.9,2-2.1,2.3-3.5c0.1-0.8,0.3-6.2,0.3-9.9
						L116.3,77.7z"/>
					
						<rect x="113.1" y="48.9" transform="matrix(0.9998 -1.909980e-02 1.909980e-02 0.9998 -0.9286 2.1869)" class="st8" width="1.8" height="1.5"/>
					
						<rect x="116.1" y="48.9" transform="matrix(0.9998 -1.909980e-02 1.909980e-02 0.9998 -0.9266 2.2444)" class="st8" width="1.8" height="1.5"/>
					
						<rect x="115" y="72.4" transform="matrix(4.997113e-03 -1 1 4.997113e-03 40.3646 189.4152)" class="st0" width="0.7" height="3.9"/>
					
						<rect x="115.1" y="69.3" transform="matrix(4.993136e-03 -1 1 4.993136e-03 43.4878 186.3392)" class="st0" width="0.7" height="3.9"/>
					<path class="st8" d="M120.8,53.4l-0.2-9.3l-10.4,0.2l0.2,9.3l-0.8,0l0.3,13.4l0,0c0.2,1.1,1.1,2,2.4,2.6c0,0.5,0.1,1.7,0.3,3
						l2.4,0l0,0.7l-2.3,0c0.1,0.8,0.2,1.6,0.2,2.3l2.1,0l0,0.7l-2,0c0.1,0.6,0.1,1.1,0.2,1.5l0.3,0c-0.1,4.9-0.2,9.1-0.3,9.7
						c-0.2,1.2-0.9,2.2-1.9,2.9c-1.1,0.8-2.5,1.1-3.9,0.8c-1.3-0.2-2.5-1-3.2-2.1c-0.8-1.1-1.1-2.4-0.8-3.8l3.1-25.4
						c0.4-2.1-0.1-4.3-1.3-6s-3.1-3-5.2-3.3c-2.1-0.4-4.3,0.1-6,1.3c-1.8,1.2-3,3.1-3.3,5.2l-2.4,13.2l3.7,0.7l2.4-13.2
						c0.2-1.1,0.8-2.1,1.8-2.8c0.9-0.7,2.1-0.9,3.2-0.7c1.1,0.2,2.1,0.8,2.8,1.8c0.7,1,0.9,2.1,0.7,3.3l-3.1,25.4
						c-0.4,2.3,0.1,4.6,1.4,6.6c1.3,1.9,3.4,3.2,5.7,3.6c0.2,0,0.4,0.1,0.7,0.1c0.7,0.1,1.4,0.1,2.1,0c1.4-0.2,2.7-0.7,3.9-1.5
						c1.8-1.3,3.1-3.2,3.4-5.4c0.2-1.3,0.3-8.1,0.4-10.4l0.3,0c0.1-0.3,0.2-0.8,0.3-1.5l-1.9,0l0-0.7l2,0c0.1-0.7,0.3-1.5,0.4-2.3
						l-2.4,0l0-0.7l2.4,0c0.1-1.1,0.2-2.1,0.3-2.7c0.5-0.2,1-0.4,1.3-0.7c1.7-1.6,1.7-3.3,1.6-3.5l-0.2-12.2L120.8,53.4z
						 M115.9,87.8c-0.3,1.9-1.4,3.6-3.1,4.8c-1.6,1.1-3.5,1.6-5.4,1.4l0,0c-0.2,0-0.4,0-0.6-0.1c-2.1-0.4-3.9-1.5-5.1-3.2
						c-1.2-1.7-1.7-3.8-1.3-5.9l3.1-25.4c0.3-1.4,0-2.8-0.8-4c-0.8-1.1-2-1.9-3.4-2.2c-0.5-0.1-1.1-0.1-1.6,0
						c-0.8,0.1-1.6,0.4-2.3,0.9c-1.1,0.8-1.9,2-2.2,3.4l-2.2,12.3l-1.9-0.3l2.2-12.3c0.3-1.9,1.4-3.5,3-4.6c1.6-1.1,3.5-1.5,5.4-1.2
						c1.9,0.3,3.5,1.4,4.6,3c1.1,1.6,1.5,3.5,1.2,5.4l-3.1,25.4c-0.3,1.6,0,3.2,1,4.5c0.9,1.3,2.3,2.2,3.8,2.4
						c1.6,0.3,3.2-0.1,4.5-1c1.2-0.9,2-2.1,2.3-3.5c0.1-0.8,0.3-6.2,0.3-9.9l1.9,0C116.2,79.7,116.1,86.6,115.9,87.8z M117.3,74.1
						l0,0.7l-3.9,0l0-0.7L117.3,74.1z M117.4,71.7l-3.9,0l0-0.7l3.9,0L117.4,71.7z M118.9,53.4l-6.7,0.1l-0.1-7.4l6.7-0.1
						L118.9,53.4z"/>
					
						<rect x="115.1" y="69.3" transform="matrix(4.990651e-03 -1 1 4.990651e-03 43.488 186.3393)" class="st2" width="0.7" height="3.9"/>
					
						<rect x="115" y="72.4" transform="matrix(4.990651e-03 -1 1 4.990651e-03 40.3653 189.4156)" class="st2" width="0.7" height="3.9"/>
					<path class="st2" d="M114.9,72.5l-2.4,0c0,0.2,0,0.4,0.1,0.7l2.3,0L114.9,72.5z"/>
					<path class="st2" d="M115.9,72.5l0,0.7l2.4,0c0-0.2,0.1-0.4,0.1-0.7L115.9,72.5z"/>
					<path class="st2" d="M115.9,76.2l1.9,0c0-0.2,0.1-0.4,0.1-0.7l-2,0L115.9,76.2z"/>
				</g>
			</g>
		</g>
		<g>
			<g id="XMLID_3_">
				<g>
					
						<pattern  id="SVGID_14_" xlink:href="#New_Pattern_Swatch_1" patternTransform="matrix(1.1925 0.2039 -0.2039 1.1925 -263.1568 2999.0352)">
					</pattern>
					<path class="st19" d="M117.8,102.4c2.5,6,0.6,13.2-4.9,17.2c-5.3,3.7-12.3,3.4-17.1-0.4c-0.3-0.2-0.5-0.4-0.8-0.7
						c-0.3-0.3-0.6-0.5-0.8-0.8c-0.3-0.3-0.6-0.6-0.8-1c-0.1-0.2-0.3-0.3-0.4-0.5l-0.8-1.1l-1.7-2.4l-0.1-0.2l-0.2-0.2l-0.7-1
						l-0.5-0.8l-2.4-3.4l-0.6-0.8L45.4,49.1c-4.6-6.4-3-15.4,3.4-20c6.5-4.6,15.4-3,20,3.4L99.5,76l4,5.7l9.7,13.7l0.6,0.8l0.9,1.2
						l1.5,2.2C116.9,100.5,117.4,101.4,117.8,102.4z"/>
					
						<pattern  id="SVGID_15_" xlink:href="#New_Pattern_Swatch_1" patternTransform="matrix(1.1925 0.2039 -0.2039 1.1925 -263.1568 2999.0352)">
					</pattern>
					<polygon class="st20" points="97.8,49.4 112.3,90.4 101,74.4 92.8,51.1 					"/>
					<path class="st18" d="M99.8,123.6c-3.1-0.4-6-1.8-8.2-4l1.1,0.5c0.3,0.2,0.7,0.2,1,0.2C95.5,121.8,97.6,122.9,99.8,123.6z"/>
					
						<pattern  id="SVGID_16_" xlink:href="#New_Pattern_Swatch_1" patternTransform="matrix(1.1925 0.2039 -0.2039 1.1925 -263.1568 2999.0352)">
					</pattern>
					<polygon class="st21" points="92.1,31.7 97.6,47.4 91.8,49.5 86.2,33.8 					"/>
					
						<pattern  id="SVGID_17_" xlink:href="#New_Pattern_Swatch_1" patternTransform="matrix(1.1925 0.2039 -0.2039 1.1925 -263.1568 2999.0352)">
					</pattern>
					<polygon class="st22" points="85.8,114.7 85.7,114.9 85.4,114.7 83.2,113.8 83.6,113 					"/>
					
						<pattern  id="SVGID_18_" xlink:href="#New_Pattern_Swatch_1" patternTransform="matrix(1.1925 0.2039 -0.2039 1.1925 -263.1568 2999.0352)">
					</pattern>
					<polygon class="st23" points="81.2,112.9 28.2,89.4 28.8,89.1 81.7,112.2 					"/>
					<polygon class="st8" points="82.4,104.1 83.1,105.1 82.3,104.8 80.3,103.2 					"/>
					<path class="st4" d="M89.7,25l1.9,5.4l-5.8,2.1l-1.9-5.4c-0.3-0.7,0.1-1.6,0.9-1.8l3.1-1.1C88.6,23.9,89.4,24.3,89.7,25z"/>
					
						<pattern  id="SVGID_19_" xlink:href="#New_Pattern_Swatch_1" patternTransform="matrix(1.1925 0.2039 -0.2039 1.1925 -263.1568 2999.0352)">
					</pattern>
					<polygon class="st24" points="71.4,103.4 30.4,85.3 30.2,84.6 30.3,84.6 69.5,101.9 					"/>
					
						<pattern  id="SVGID_20_" xlink:href="#New_Pattern_Swatch_1" patternTransform="matrix(1.1925 0.2039 -0.2039 1.1925 -263.1568 2999.0352)">
					</pattern>
					<path class="st25" d="M70.6,100L57.4,89.7l1.5-1.9c1.5,1.2,5.5,4.3,7,5.5c1.7,1.3,5.5,4.3,9.5,7.5c1.4,1.1,2.8,2.2,4.2,3.3
						c0.6,0.4,1.1,0.9,1.6,1.3c1,0.8,2,1.6,2.9,2.3l1,1.4l1.8,2.6l0.7,1l0.5,0.8l-0.2,0.4c-0.2-0.2-0.4-0.3-0.7-0.5
						c-0.1-0.1-0.3-0.2-0.4-0.3l-0.4-0.3l-0.3-0.2l-1.9-1.5l-1.8-1.4l0,0l0,0l-2.1-1.7l-1.2-1l-2-1.6L70.6,100z"/>
					<polygon class="st4" points="57.4,86.4 55.6,88.7 53.2,87.2 55.4,84.4 					"/>
					
						<pattern  id="SVGID_21_" xlink:href="#New_Pattern_Swatch_1" patternTransform="matrix(1.1925 0.2039 -0.2039 1.1925 -263.1568 2999.0352)">
					</pattern>
					<path class="st26" d="M53.9,82.9l-2.5,3.2l-11.9-7.2c0.4-0.7,1.6-2.7,2.1-3.3c0.4-0.5,1.9-2,2.4-2.5L53.9,82.9z"/>
					<path class="st4" d="M40.4,73.8c-0.1,0.1-0.2,0.3-0.3,0.4l-8.6-6.8c0.1-0.1,0.2-0.2,0.3-0.3L40.4,73.8z"/>
					<path class="st4" d="M39.5,74.9c-0.1,0.1-0.2,0.2-0.3,0.3l-8.5-6.7c0-0.1,0.1-0.4,0.1-0.5L39.5,74.9z"/>
					<path class="st4" d="M38.6,76.2c-0.1,0.1-0.2,0.3-0.2,0.4L31,70.8c-0.2-0.3-0.3-0.7-0.3-0.8L38.6,76.2z"/>
					<path class="st18" d="M40.7,40.1c-0.1,3.5,0.8,7.1,3,10.2L80,101.6c-1-0.8-1.9-1.5-2.9-2.3L42.8,50.9
						C40.5,47.7,39.9,43.8,40.7,40.1z"/>
					<path class="st4" d="M42,72.2l-6.3-5c0.5,0.1,1.1,0.4,1.4,0.6l5.2,4.1C42.1,71.9,42.1,72,42,72.2z"/>
					<path class="st4" d="M32.9,66.8c0.2,0,0.5,0,0.7,0l7.7,6c-0.1,0.1-0.2,0.2-0.3,0.3L32.9,66.8z"/>
					
						<pattern  id="SVGID_22_" xlink:href="#New_Pattern_Swatch_1" patternTransform="matrix(1.1925 0.2039 -0.2039 1.1925 -263.1568 2999.0352)">
					</pattern>
					<polygon class="st27" points="81,110.9 29.1,88 29.1,86.9 30,86.3 74.8,106.1 					"/>
					<path class="st4" d="M32.3,73.6c-0.3-0.3-0.8-0.8-1-1.2l6.4,4.8c-0.1,0.1-0.2,0.2-0.2,0.3L32.3,73.6z"/>
					<polygon class="st4" points="28.1,84.1 28.1,85 26.9,85.9 27,87.7 26.5,88 23.4,85.2 23.9,83.7 					"/>
					
						<pattern  id="SVGID_23_" xlink:href="#New_Pattern_Swatch_1" patternTransform="matrix(1.1925 0.2039 -0.2039 1.1925 -263.1568 2999.0352)">
					</pattern>
					<polygon class="st28" points="23,83.6 22.6,84.7 20,82.9 					"/>
					<path class="st8" d="M85.7,32.4l5.8-2.1L89.7,25c-0.3-0.7-1.1-1.1-1.8-0.9l-3.1,1.1c-0.7,0.3-1.1,1.1-0.9,1.8L85.7,32.4z
						 M83.6,113l-0.4,0.8l2.2,1l0.3,0.1l0.1-0.2L83.6,113z M22.6,84.7l0.4-1.1l-3-0.6L22.6,84.7z M28.1,85l0-0.9l-4.2-0.4l-0.5,1.5
						l3.1,2.8l0.5-0.3l-0.1-1.8L28.1,85z M97.6,47.4l-5.5-15.7l-5.8,2.1l5.5,15.7L97.6,47.4z M100.3,46.9c0.3,0.4,0.6,0.4,0.7,0.4
						c0,0,0.1-0.3,0.1-0.5L95.2,30c-0.1-0.2-0.3-0.3-0.5-0.3l-1.1,0.4l5.7,16.1c0-0.3,0-0.7,0.2-1.2l0.9,0.3
						C100,46,100.1,46.5,100.3,46.9z M42,72.2c0.1-0.1,0.2-0.2,0.2-0.3L37,67.8c-0.3-0.2-0.9-0.5-1.4-0.6L42,72.2z M32.9,66.8
						l8.1,6.3c0.1-0.1,0.2-0.2,0.3-0.3l-7.7-6C33.4,66.7,33.1,66.8,32.9,66.8z M81.7,112.2L28.8,89.1l-0.6,0.4l53.1,23.4L81.7,112.2
						z M31.3,72.4c0.2,0.4,0.7,0.9,1,1.2l5.3,3.9c0-0.1,0.1-0.2,0.2-0.3L31.3,72.4z M40.1,74.2c0.1-0.1,0.2-0.3,0.3-0.4l-8.6-6.7
						c-0.1,0.1-0.2,0.2-0.3,0.3L40.1,74.2z M39.2,75.3c0.1-0.1,0.2-0.2,0.3-0.3l-8.6-6.8c-0.1,0.1-0.1,0.3-0.1,0.5L39.2,75.3z
						 M38.4,76.6c0.1-0.1,0.2-0.3,0.2-0.4L30.8,70c0,0.1,0.1,0.5,0.3,0.8L38.4,76.6z M80.3,103.2l2,1.6l0.8,0.4l-0.7-1L80.3,103.2z
						 M71.4,103.4l-2-1.6L30.3,84.6l-0.1,0l0.2,0.7L71.4,103.4z M81,110.9l-6.2-4.8L30,86.3l-0.9,0.6l0,1.1L81,110.9z M59,87.8
						l-1.5,1.9L70.6,100l6.7,5.3l2,1.6l1.2,1l2.1,1.7l0,0l0,0l1.8,1.4l1.9,1.5l0.3,0.2l0.4,0.3c0.2,0.1,0.3,0.2,0.4,0.3
						c0.2,0.2,0.4,0.3,0.7,0.5l0.2-0.4l-0.5-0.8l-0.7-1l-1.8-2.6l-1-1.4c-0.9-0.7-1.9-1.5-2.9-2.3c-0.5-0.4-1.1-0.9-1.6-1.3
						c-1.4-1.1-2.8-2.2-4.2-3.3c-4-3.2-7.9-6.2-9.5-7.5C64.5,92.1,60.5,89,59,87.8z M101,74.4l11.3,16l-14.4-41l-5.1,1.8L101,74.4z
						 M55.4,84.4l-2.2,2.8l2.4,1.4l1.8-2.2L55.4,84.4z M43.7,50.3c-2.2-3.1-3.1-6.7-3-10.2c-0.8,3.7-0.1,7.6,2.1,10.8l34.3,48.4
						c1,0.8,1.9,1.5,2.9,2.3L43.7,50.3z M68.8,32.5c-4.6-6.4-13.5-8-20-3.4c-6.4,4.6-8,13.5-3.4,20l40.4,57.1l0.6,0.8l2.4,3.4
						l0.5,0.8l0.7,1l0.2,0.2l0.1,0.2l1.7,2.4l0.8,1.1c0.1,0.2,0.3,0.3,0.4,0.5c0.3,0.3,0.5,0.7,0.8,1c0.3,0.3,0.5,0.6,0.8,0.8
						c0.3,0.2,0.5,0.5,0.8,0.7c4.9,3.8,11.8,4.2,17.1,0.4c5.6-3.9,7.4-11.1,4.9-17.2c-0.4-1-0.9-1.9-1.5-2.8l-1.5-2.2l-0.9-1.2
						l-0.6-0.8l-9.7-13.7l-4-5.7L68.8,32.5z M91.6,119.6c2.2,2.2,5.1,3.6,8.2,4c-2.2-0.7-4.2-1.8-6-3.3c-0.3,0-0.7,0-1-0.2
						L91.6,119.6z M47.6,27.4c7.4-5.2,17.7-3.5,22.9,3.9L97,68.7l-6-16.9l-0.4,0.1l-8.5-24.2c-0.6-1.7,0.3-3.6,2-4.2l3.1-1.1
						c1.7-0.6,3.6,0.3,4.3,2l1.7,4.8l1.1-0.4c0.7-0.2,1.5,0.1,1.7,0.9l6,16.9c0.2,0.5,0.1,1-0.2,1.4c-0.1,0.2-0.3,0.3-0.5,0.4
						c-0.1,0-0.2,0.1-0.3,0.1c-0.4,0-1-0.3-1.4-0.7l0.4,1l-0.4,0.1L116.3,96l1.7,2.3c5.2,7.4,3.5,17.7-3.9,22.9
						c-0.5,0.4-1,0.7-1.6,1l0.1,0.1c-8,5.7-18.7,4.2-24-3.2l-0.8-1.1l-7.4-3.3l0,0L26.4,91l-0.1-0.3L17,81.6l13,0.8l0.2-0.1
						l32.6,14.4l-6.6-5.2l-0.1,0.1L38.2,80.6c-0.3-0.2-0.6-0.5-0.8-0.9L31.4,75c-1.1-0.9-2-2.3-2.5-3.8c-0.6-1.8-0.4-3.4,0.5-4.6
						l0.3-0.4c1.2-1.5,3.3-1.8,5.3-1.5c1.3,0.2,2.5,0.8,3.4,1.4l6.1,4.8c0.4,0.1,0.7,0.3,1,0.5l14.2,14.2l0.1-0.1c0,0,5.7,4.5,7.6,6
						c0.8,0.7,2.2,1.8,3.9,3.1L41.1,52.1c-5.2-7.4-3-18,5-23.7l0.1,0.1C46.6,28.1,47.1,27.8,47.6,27.4z M44,73.1
						c-0.6,0.5-2,2-2.4,2.5c-0.5,0.6-1.7,2.6-2.1,3.3l11.9,7.2l2.5-3.2L44,73.1z"/>
				</g>
				<g>
				</g>
			</g>
		</g>
		<g>
			<polygon class="st4" points="69.5,59.2 70.1,63 70.2,63.1 73,60.9 73,60.9 69.6,59.2 			"/>
			<path class="st4" d="M81.9,63.8l-1.3-1.7l-1.7,1.3l1.3,1.7L81.9,63.8C81.9,63.8,81.9,63.8,81.9,63.8z"/>
			<ellipse transform="matrix(0.798 -0.6026 0.6026 0.798 -29.2191 58.2909)" class="st4" cx="72.3" cy="72.7" rx="0.9" ry="0.9"/>
			<ellipse transform="matrix(0.798 -0.6026 0.6026 0.798 -31.5945 68.427)" class="st4" cx="86.3" cy="81.3" rx="2.3" ry="2.3"/>
			<path class="st8" d="M84.7,77.8L81,72.9l2.4-5.2c0.3-0.7,0.2-1.4-0.2-2l-0.4-0.5l0.1-0.1c0.7-0.5,0.9-1.6,0.3-2.3l-1.3-1.7
				c-0.5-0.7-1.6-0.9-2.3-0.3L78,62.1c-0.7,0.5-0.9,1.6-0.3,2.3l1.3,1.7c0.5,0.7,1.6,0.9,2.3,0.3l0.3-0.2l0.4,0.5
				c0.1,0.1,0.1,0.2,0,0.3l-2.1,4.4l-6.6-8.7l0.7-0.5c0.5-0.4,0.7-0.9,0.7-1.5c-0.1-0.6-0.4-1.1-0.9-1.3l-3.4-1.7
				c-0.6-0.3-1.2-0.2-1.7,0.2c-0.5,0.4-0.8,1-0.7,1.6l0.6,3.8c0.1,0.6,0.5,1.1,1,1.3c0.5,0.2,1.2,0.1,1.6-0.2l0.8-0.6l8.2,10.9
				l-4.9,0.5c-0.2,0-0.4-0.1-0.5-0.2l-0.5-0.6c0.6-0.9,0.7-2.1,0-3c-0.9-1.1-2.5-1.4-3.6-0.5c-1.1,0.9-1.4,2.5-0.5,3.6
				c0.7,0.9,1.8,1.2,2.8,0.9l0.5,0.7c0.5,0.6,1.2,0.9,1.9,0.9l5.9-0.5l2,2.6c-1.2,1.4-1.3,3.4-0.2,4.9c1.3,1.7,3.7,2,5.4,0.8
				c1.7-1.3,2-3.7,0.8-5.4C88.3,77.5,86.3,77.1,84.7,77.8z M80.2,65.1l-1.3-1.7l1.7-1.3l1.3,1.7c0,0,0,0,0,0L80.2,65.1z M73,60.9
				l-2.8,2.1l-0.1,0l-0.6-3.8l0.1-0.1L73,60.9L73,60.9z M72.9,73.5c-0.4,0.3-1,0.2-1.3-0.2c-0.3-0.4-0.2-1,0.2-1.3
				c0.4-0.3,1-0.2,1.3,0.2C73.4,72.6,73.3,73.2,72.9,73.5z M87.6,83.1c-1,0.7-2.4,0.6-3.2-0.4c-0.7-1-0.6-2.4,0.4-3.2
				c1-0.7,2.4-0.6,3.2,0.4C88.8,81,88.6,82.4,87.6,83.1z"/>
		</g>
	</g>
</g>
</svg>
