<svg xmlns="http://www.w3.org/2000/svg" xmlns:xlink="http://www.w3.org/1999/xlink" viewBox="0 0 1200 775"><defs><style>.cls-1,.cls-10,.cls-6{fill:none;}.cls-2{fill:#d0bbba;}.cls-3{fill:#a7a9ac;}.cls-10,.cls-4,.cls-5,.cls-6{stroke:#262a47;stroke-miterlimit:10;}.cls-4,.cls-5{stroke-width:3px;}.cls-11,.cls-4{fill:url(#New_Pattern_Swatch_1);}.cls-5,.cls-7{fill:#fff;}.cls-6{stroke-width:0.75px;}.cls-8{fill:#262a47;}.cls-9{clip-path:url(#clip-path);}.cls-10{stroke-width:2px;}.cls-12{fill:url(#New_Pattern_Swatch_1-7);}.cls-13{fill:url(#New_Pattern_Swatch_1-25);}</style><pattern id="New_Pattern_Swatch_1" data-name="New Pattern Swatch 1" width="14.25" height="14.25" patternTransform="translate(-1.71 -102.74) scale(1.41)" patternUnits="userSpaceOnUse" viewBox="0 0 14.25 14.25"><rect class="cls-1" width="14.25" height="14.25"/><rect class="cls-2" width="14.25" height="14.25"/></pattern><clipPath id="clip-path"><rect class="cls-1" x="821.77" y="531.26" width="180.14" height="94.73" rx="17.29" ry="17.29" transform="translate(-167.36 618.37) rotate(-34.51)"/></clipPath><pattern id="New_Pattern_Swatch_1-7" data-name="New Pattern Swatch 1" width="14.25" height="14.25" patternTransform="translate(0 -0.22)" patternUnits="userSpaceOnUse" viewBox="0 0 14.25 14.25"><rect class="cls-1" width="14.25" height="14.25"/><rect class="cls-2" width="14.25" height="14.25"/></pattern><pattern id="New_Pattern_Swatch_1-25" data-name="New Pattern Swatch 1" width="14.25" height="14.25" patternTransform="matrix(0.11, 1.41, 1.41, -0.11, -79.56, -5.98)" patternUnits="userSpaceOnUse" viewBox="0 0 14.25 14.25"><rect class="cls-1" width="14.25" height="14.25"/><rect class="cls-2" width="14.25" height="14.25"/></pattern></defs><title>Artboard 1</title><g id="New_Icons" data-name="New Icons"><path class="cls-3" d="M1010.72,450.16H946v-1.92a26,26,0,0,0-26-26H753.92a26,26,0,0,0-26,26V451a47.8,47.8,0,0,0-32.47,23,48.2,48.2,0,0,0,.34-5.6V429.19a47.77,47.77,0,0,0-43.43-47.56v-12.9h51.42a47.76,47.76,0,0,0,42.77-26.5H952.21A47.77,47.77,0,0,0,1000,294.47V262.58h2.15a26,26,0,0,0,26-26V215.22a26,26,0,0,0-26-26h-5.29a47.78,47.78,0,0,0-44.62-30.72H912.63a47.76,47.76,0,0,0-47.76-47.31H591a47.72,47.72,0,0,0-39.62,21.08H429.9A47.78,47.78,0,0,0,385.27,163H243.2a26,26,0,0,0-26,26v21.36a25.94,25.94,0,0,0,1.47,8.61H189.28a47.77,47.77,0,0,0-47.77,47.77V306a47.77,47.77,0,0,0,47.77,47.77H283c0,.48,0,1,0,1.43v39.26a48,48,0,0,0,.7,8.12h-.54a26,26,0,0,0-26,26v21.36a26,26,0,0,0,26,26H394.34a47.78,47.78,0,0,0,47.19,40.31H648a47.74,47.74,0,0,0,41.36-23.89,48.2,48.2,0,0,0-.34,5.6v18.74H668.49a47.55,47.55,0,0,0-22.33,5.54H592.84a26,26,0,0,0-26,26v21.36a26,26,0,0,0,26,26h27.88v8.13a47.77,47.77,0,0,0,47.77,47.77H942.38a47.77,47.77,0,0,0,47.77-47.77V585h20.56a47.77,47.77,0,0,0,47.77-47.77V497.93A47.77,47.77,0,0,0,1010.72,450.16Z"/><g id="Sketchbook_Icon" data-name="Sketchbook Icon"><path class="cls-4" d="M333.88,612.81,183.83,586.24c-17.75-5.16,23.68-201.9,23.68-201.9,1-5.52,13.66-10,19.18-9L366.06,400a10.16,10.16,0,0,1,8.23,11.77L339.37,609A4.73,4.73,0,0,1,333.88,612.81Z"/><path class="cls-5" d="M334.11,605.74,370.54,400l-11.06-8.64a.91.91,0,0,0-1.5.52L323.27,588,333,604C333.4,604.58,334,606.46,334.11,605.74Z"/><path class="cls-4" d="M326.28,592.07,175.69,565.4,211,366a3.34,3.34,0,0,1,3.88-2.71l144,25.5a3.34,3.34,0,0,1,2.71,3.88Z"/><path class="cls-5" d="M333.6,605.57l-152.69-27-4.6-11.76a.91.91,0,0,1,1-1.23l149,26.38,7,12.46C333.58,604.89,334.16,605.67,333.6,605.57Z"/><line class="cls-6" x1="178.73" y1="571.98" x2="330.27" y2="598.81"/><line class="cls-6" x1="179.07" y1="570.05" x2="326.95" y2="596.23"/><line class="cls-6" x1="178.39" y1="573.91" x2="329.92" y2="600.74"/><line class="cls-6" x1="329.27" y1="598.63" x2="365.01" y2="396.79"/><line class="cls-6" x1="331.26" y1="598.99" x2="367.01" y2="397.14"/></g><g id="Phone_Icon" data-name="Phone Icon"><path class="cls-7" d="M981.14,588.2c.74-.51,2,0,2.73,1.09h0c.76,1.11.78,2.43,0,2.94l-8.52,5.85c-.74.51-2,0-2.73-1.09h0c-.76-1.11-.78-2.43,0-2.94"/><path class="cls-8" d="M974.7,599.54a3,3,0,0,1-1.13-.23,4.39,4.39,0,0,1-1.94-1.61c-1.17-1.71-1-3.76.28-4.67l1.41,2.05a1.7,1.7,0,0,0,.36,1.21c.4.59.9.79,1,.75l8.48-5.84a1.7,1.7,0,0,0-.36-1.21,1.48,1.48,0,0,0-1-.75l-1.38-2.07A2.65,2.65,0,0,1,983,587a4.39,4.39,0,0,1,1.94,1.61c1.17,1.71,1,3.76-.28,4.67l-8.52,5.86A2.44,2.44,0,0,1,974.7,599.54Z"/><path class="cls-7" d="M919.61,516.94c-.74.51-2.06-.11-2.93-1.38h0c-.88-1.27-1-2.72-.24-3.23l8.52-5.85c.74-.51,2.06.11,2.93,1.38h0c.88,1.27,1,2.72.24,3.23"/><path class="cls-8" d="M919,518.37a3.14,3.14,0,0,1-1.33-.32,5.25,5.25,0,0,1-2-1.78c-1.31-1.9-1.27-4,.08-5l8.52-5.86c1.35-.93,3.36-.2,4.66,1.7a5.24,5.24,0,0,1,.94,2.52,2.62,2.62,0,0,1-1,2.45l-1.41-2.06a2.94,2.94,0,0,0-.56-1.5,2.2,2.2,0,0,0-1.29-1l-8.42,5.81a3,3,0,0,0,.56,1.5,2.25,2.25,0,0,0,1.29,1l1.32,2.09A2.3,2.3,0,0,1,919,518.37Z"/><path class="cls-7" d="M935.67,505.9c-.74.51-2.06-.11-2.93-1.38h0c-.88-1.27-1-2.72-.24-3.23l5.43-3.74c.74-.51,2.06.11,2.93,1.38h0c.88,1.27,1,2.72.24,3.23"/><path class="cls-8" d="M935.06,507.33a4.34,4.34,0,0,1-3.34-2.1,5.23,5.23,0,0,1-.94-2.51,2.62,2.62,0,0,1,1-2.45l5.43-3.74a2.62,2.62,0,0,1,2.65-.08,5.57,5.57,0,0,1,3,4.3,2.63,2.63,0,0,1-1,2.45l-1.41-2.05a2.93,2.93,0,0,0-.56-1.5,2.28,2.28,0,0,0-1.29-1l-5.34,3.7a2.94,2.94,0,0,0,.56,1.49,2.19,2.19,0,0,0,1.29,1l1.32,2.1A2.3,2.3,0,0,1,935.06,507.33Z"/><path class="cls-7" d="M905.67,526.52c-.74.51-2.06-.11-2.93-1.38h0c-.88-1.27-1-2.72-.24-3.23l8.52-5.85c.74-.51,2.06.11,2.93,1.38h0c.88,1.27,1,2.72.24,3.23"/><path class="cls-8" d="M905.06,528a4.34,4.34,0,0,1-3.34-2.1c-1.31-1.9-1.27-4,.08-5l8.52-5.86c1.35-.93,3.36-.2,4.66,1.7a5.23,5.23,0,0,1,.94,2.51,2.62,2.62,0,0,1-1,2.45l-1.41-2.06a2.94,2.94,0,0,0-.56-1.49c-.55-.8-1.17-1-1.29-1l-8.42,5.81a3,3,0,0,0,.56,1.5,2.13,2.13,0,0,0,1.29,1l1.32,2.1A2.3,2.3,0,0,1,905.06,528Z"/><g class="cls-9"><rect class="cls-1" x="997.63" y="487.53" width="17.77" height="17.77"/><rect class="cls-2" x="997.63" y="487.53" width="17.77" height="17.77"/><rect class="cls-1" x="997.63" y="505.3" width="17.77" height="17.77"/><rect class="cls-2" x="997.63" y="505.3" width="17.77" height="17.77"/><rect class="cls-1" x="997.63" y="523.07" width="17.77" height="17.77"/><rect class="cls-2" x="997.63" y="523.07" width="17.77" height="17.77"/><rect class="cls-1" x="997.63" y="540.84" width="17.77" height="17.77"/><rect class="cls-2" x="997.63" y="540.84" width="17.77" height="17.77"/><rect class="cls-1" x="997.63" y="558.61" width="17.77" height="17.77"/><rect class="cls-2" x="997.63" y="558.61" width="17.77" height="17.77"/><rect class="cls-1" x="997.63" y="576.38" width="17.77" height="17.77"/><rect class="cls-2" x="997.63" y="576.38" width="17.77" height="17.77"/><rect class="cls-1" x="997.63" y="594.16" width="17.77" height="17.77"/><rect class="cls-2" x="997.63" y="594.16" width="17.77" height="17.77"/><rect class="cls-1" x="997.63" y="611.93" width="17.77" height="17.77"/><rect class="cls-2" x="997.63" y="611.93" width="17.77" height="17.77"/><rect class="cls-1" x="997.63" y="629.7" width="17.77" height="17.77"/><rect class="cls-2" x="997.63" y="629.7" width="17.77" height="17.77"/><rect class="cls-1" x="997.63" y="647.47" width="17.77" height="17.77"/><rect class="cls-2" x="997.63" y="647.47" width="17.77" height="17.77"/><rect class="cls-1" x="979.86" y="487.53" width="17.77" height="17.77"/><rect class="cls-2" x="979.86" y="487.53" width="17.77" height="17.77"/><rect class="cls-1" x="979.86" y="505.3" width="17.77" height="17.77"/><rect class="cls-2" x="979.86" y="505.3" width="17.77" height="17.77"/><rect class="cls-1" x="979.86" y="523.07" width="17.77" height="17.77"/><rect class="cls-2" x="979.86" y="523.07" width="17.77" height="17.77"/><rect class="cls-1" x="979.86" y="540.84" width="17.77" height="17.77"/><rect class="cls-2" x="979.86" y="540.84" width="17.77" height="17.77"/><rect class="cls-1" x="979.86" y="558.61" width="17.77" height="17.77"/><rect class="cls-2" x="979.86" y="558.61" width="17.77" height="17.77"/><rect class="cls-1" x="979.86" y="576.38" width="17.77" height="17.77"/><rect class="cls-2" x="979.86" y="576.38" width="17.77" height="17.77"/><rect class="cls-1" x="979.86" y="594.16" width="17.77" height="17.77"/><rect class="cls-2" x="979.86" y="594.16" width="17.77" height="17.77"/><rect class="cls-1" x="979.86" y="611.93" width="17.77" height="17.77"/><rect class="cls-2" x="979.86" y="611.93" width="17.77" height="17.77"/><rect class="cls-1" x="979.86" y="629.7" width="17.77" height="17.77"/><rect class="cls-2" x="979.86" y="629.7" width="17.77" height="17.77"/><rect class="cls-1" x="979.86" y="647.47" width="17.77" height="17.77"/><rect class="cls-2" x="979.86" y="647.47" width="17.77" height="17.77"/><rect class="cls-1" x="962.08" y="487.53" width="17.77" height="17.77"/><rect class="cls-2" x="962.08" y="487.53" width="17.77" height="17.77"/><rect class="cls-1" x="962.08" y="505.3" width="17.77" height="17.77"/><rect class="cls-2" x="962.08" y="505.3" width="17.77" height="17.77"/><rect class="cls-1" x="962.08" y="523.07" width="17.77" height="17.77"/><rect class="cls-2" x="962.08" y="523.07" width="17.77" height="17.77"/><rect class="cls-1" x="962.08" y="540.84" width="17.77" height="17.77"/><rect class="cls-2" x="962.08" y="540.84" width="17.77" height="17.77"/><rect class="cls-1" x="962.08" y="558.61" width="17.77" height="17.77"/><rect class="cls-2" x="962.08" y="558.61" width="17.77" height="17.77"/><rect class="cls-1" x="962.08" y="576.38" width="17.77" height="17.77"/><rect class="cls-2" x="962.08" y="576.38" width="17.77" height="17.77"/><rect class="cls-1" x="962.08" y="594.16" width="17.77" height="17.77"/><rect class="cls-2" x="962.08" y="594.16" width="17.77" height="17.77"/><rect class="cls-1" x="962.08" y="611.93" width="17.77" height="17.77"/><rect class="cls-2" x="962.08" y="611.93" width="17.77" height="17.77"/><rect class="cls-1" x="962.08" y="629.7" width="17.77" height="17.77"/><rect class="cls-2" x="962.08" y="629.7" width="17.77" height="17.77"/><rect class="cls-1" x="962.08" y="647.47" width="17.77" height="17.77"/><rect class="cls-2" x="962.08" y="647.47" width="17.77" height="17.77"/><rect class="cls-1" x="944.31" y="487.53" width="17.77" height="17.77"/><rect class="cls-2" x="944.31" y="487.53" width="17.77" height="17.77"/><rect class="cls-1" x="944.31" y="505.3" width="17.77" height="17.77"/><rect class="cls-2" x="944.31" y="505.3" width="17.77" height="17.77"/><rect class="cls-1" x="944.31" y="523.07" width="17.77" height="17.77"/><rect class="cls-2" x="944.31" y="523.07" width="17.77" height="17.77"/><rect class="cls-1" x="944.31" y="540.84" width="17.77" height="17.77"/><rect class="cls-2" x="944.31" y="540.84" width="17.77" height="17.77"/><rect class="cls-1" x="944.31" y="558.61" width="17.77" height="17.77"/><rect class="cls-2" x="944.31" y="558.61" width="17.77" height="17.77"/><rect class="cls-1" x="944.31" y="576.38" width="17.77" height="17.77"/><rect class="cls-2" x="944.31" y="576.38" width="17.77" height="17.77"/><rect class="cls-1" x="944.31" y="594.16" width="17.77" height="17.77"/><rect class="cls-2" x="944.31" y="594.16" width="17.77" height="17.77"/><rect class="cls-1" x="944.31" y="611.93" width="17.77" height="17.77"/><rect class="cls-2" x="944.31" y="611.93" width="17.77" height="17.77"/><rect class="cls-1" x="944.31" y="629.7" width="17.77" height="17.77"/><rect class="cls-2" x="944.31" y="629.7" width="17.77" height="17.77"/><rect class="cls-1" x="944.31" y="647.47" width="17.77" height="17.77"/><rect class="cls-2" x="944.31" y="647.47" width="17.77" height="17.77"/><rect class="cls-1" x="926.54" y="487.53" width="17.77" height="17.77"/><rect class="cls-2" x="926.54" y="487.53" width="17.77" height="17.77"/><rect class="cls-1" x="926.54" y="505.3" width="17.77" height="17.77"/><rect class="cls-2" x="926.54" y="505.3" width="17.77" height="17.77"/><rect class="cls-1" x="926.54" y="523.07" width="17.77" height="17.77"/><rect class="cls-2" x="926.54" y="523.07" width="17.77" height="17.77"/><rect class="cls-1" x="926.54" y="540.84" width="17.77" height="17.77"/><rect class="cls-2" x="926.54" y="540.84" width="17.77" height="17.77"/><rect class="cls-1" x="926.54" y="558.61" width="17.77" height="17.77"/><rect class="cls-2" x="926.54" y="558.61" width="17.77" height="17.77"/><rect class="cls-1" x="926.54" y="576.38" width="17.77" height="17.77"/><rect class="cls-2" x="926.54" y="576.38" width="17.77" height="17.77"/><rect class="cls-1" x="926.54" y="594.16" width="17.77" height="17.77"/><rect class="cls-2" x="926.54" y="594.16" width="17.77" height="17.77"/><rect class="cls-1" x="926.54" y="611.93" width="17.77" height="17.77"/><rect class="cls-2" x="926.54" y="611.93" width="17.77" height="17.77"/><rect class="cls-1" x="926.54" y="629.7" width="17.77" height="17.77"/><rect class="cls-2" x="926.54" y="629.7" width="17.77" height="17.77"/><rect class="cls-1" x="926.54" y="647.47" width="17.77" height="17.77"/><rect class="cls-2" x="926.54" y="647.47" width="17.77" height="17.77"/><rect class="cls-1" x="908.77" y="487.53" width="17.77" height="17.77"/><rect class="cls-2" x="908.77" y="487.53" width="17.77" height="17.77"/><rect class="cls-1" x="908.77" y="505.3" width="17.77" height="17.77"/><rect class="cls-2" x="908.77" y="505.3" width="17.77" height="17.77"/><rect class="cls-1" x="908.77" y="523.07" width="17.77" height="17.77"/><rect class="cls-2" x="908.77" y="523.07" width="17.77" height="17.77"/><rect class="cls-1" x="908.77" y="540.84" width="17.77" height="17.77"/><rect class="cls-2" x="908.77" y="540.84" width="17.77" height="17.77"/><rect class="cls-1" x="908.77" y="558.61" width="17.77" height="17.77"/><rect class="cls-2" x="908.77" y="558.61" width="17.77" height="17.77"/><rect class="cls-1" x="908.77" y="576.38" width="17.77" height="17.77"/><rect class="cls-2" x="908.77" y="576.38" width="17.77" height="17.77"/><rect class="cls-1" x="908.77" y="594.16" width="17.77" height="17.77"/><rect class="cls-2" x="908.77" y="594.16" width="17.77" height="17.77"/><rect class="cls-1" x="908.77" y="611.93" width="17.77" height="17.77"/><rect class="cls-2" x="908.77" y="611.93" width="17.77" height="17.77"/><rect class="cls-1" x="908.77" y="629.7" width="17.77" height="17.77"/><rect class="cls-2" x="908.77" y="629.7" width="17.77" height="17.77"/><rect class="cls-1" x="908.77" y="647.47" width="17.77" height="17.77"/><rect class="cls-2" x="908.77" y="647.47" width="17.77" height="17.77"/><rect class="cls-1" x="891" y="487.53" width="17.77" height="17.77"/><rect class="cls-2" x="891" y="487.53" width="17.77" height="17.77"/><rect class="cls-1" x="891" y="505.3" width="17.77" height="17.77"/><rect class="cls-2" x="891" y="505.3" width="17.77" height="17.77"/><rect class="cls-1" x="891" y="523.07" width="17.77" height="17.77"/><rect class="cls-2" x="891" y="523.07" width="17.77" height="17.77"/><rect class="cls-1" x="891" y="540.84" width="17.77" height="17.77"/><rect class="cls-2" x="891" y="540.84" width="17.77" height="17.77"/><rect class="cls-1" x="891" y="558.61" width="17.77" height="17.77"/><rect class="cls-2" x="891" y="558.61" width="17.77" height="17.77"/><rect class="cls-1" x="891" y="576.38" width="17.77" height="17.77"/><rect class="cls-2" x="891" y="576.38" width="17.77" height="17.77"/><rect class="cls-1" x="891" y="594.16" width="17.77" height="17.77"/><rect class="cls-2" x="891" y="594.16" width="17.77" height="17.77"/><rect class="cls-1" x="891" y="611.93" width="17.77" height="17.77"/><rect class="cls-2" x="891" y="611.93" width="17.77" height="17.77"/><rect class="cls-1" x="891" y="629.7" width="17.77" height="17.77"/><rect class="cls-2" x="891" y="629.7" width="17.77" height="17.77"/><rect class="cls-1" x="891" y="647.47" width="17.77" height="17.77"/><rect class="cls-2" x="891" y="647.47" width="17.77" height="17.77"/><rect class="cls-1" x="873.23" y="487.53" width="17.77" height="17.77"/><rect class="cls-2" x="873.23" y="487.53" width="17.77" height="17.77"/><rect class="cls-1" x="873.23" y="505.3" width="17.77" height="17.77"/><rect class="cls-2" x="873.23" y="505.3" width="17.77" height="17.77"/><rect class="cls-1" x="873.23" y="523.07" width="17.77" height="17.77"/><rect class="cls-2" x="873.23" y="523.07" width="17.77" height="17.77"/><rect class="cls-1" x="873.23" y="540.84" width="17.77" height="17.77"/><rect class="cls-2" x="873.23" y="540.84" width="17.77" height="17.77"/><rect class="cls-1" x="873.23" y="558.61" width="17.77" height="17.77"/><rect class="cls-2" x="873.23" y="558.61" width="17.77" height="17.77"/><rect class="cls-1" x="873.23" y="576.38" width="17.77" height="17.77"/><rect class="cls-2" x="873.23" y="576.38" width="17.77" height="17.77"/><rect class="cls-1" x="873.23" y="594.16" width="17.77" height="17.77"/><rect class="cls-2" x="873.23" y="594.16" width="17.77" height="17.77"/><rect class="cls-1" x="873.23" y="611.93" width="17.77" height="17.77"/><rect class="cls-2" x="873.23" y="611.93" width="17.77" height="17.77"/><rect class="cls-1" x="873.23" y="629.7" width="17.77" height="17.77"/><rect class="cls-2" x="873.23" y="629.7" width="17.77" height="17.77"/><rect class="cls-1" x="873.23" y="647.47" width="17.77" height="17.77"/><rect class="cls-2" x="873.23" y="647.47" width="17.77" height="17.77"/><rect class="cls-1" x="855.45" y="487.53" width="17.77" height="17.77"/><rect class="cls-2" x="855.45" y="487.53" width="17.77" height="17.77"/><rect class="cls-1" x="855.45" y="505.3" width="17.77" height="17.77"/><rect class="cls-2" x="855.45" y="505.3" width="17.77" height="17.77"/><rect class="cls-1" x="855.45" y="523.07" width="17.77" height="17.77"/><rect class="cls-2" x="855.45" y="523.07" width="17.77" height="17.77"/><rect class="cls-1" x="855.45" y="540.84" width="17.77" height="17.77"/><rect class="cls-2" x="855.45" y="540.84" width="17.77" height="17.77"/><rect class="cls-1" x="855.45" y="558.61" width="17.77" height="17.77"/><rect class="cls-2" x="855.45" y="558.61" width="17.77" height="17.77"/><rect class="cls-1" x="855.45" y="576.38" width="17.77" height="17.77"/><rect class="cls-2" x="855.45" y="576.38" width="17.77" height="17.77"/><rect class="cls-1" x="855.45" y="594.16" width="17.77" height="17.77"/><rect class="cls-2" x="855.45" y="594.16" width="17.77" height="17.77"/><rect class="cls-1" x="855.45" y="611.93" width="17.77" height="17.77"/><rect class="cls-2" x="855.45" y="611.93" width="17.77" height="17.77"/><rect class="cls-1" x="855.45" y="629.7" width="17.77" height="17.77"/><rect class="cls-2" x="855.45" y="629.7" width="17.77" height="17.77"/><rect class="cls-1" x="855.45" y="647.47" width="17.77" height="17.77"/><rect class="cls-2" x="855.45" y="647.47" width="17.77" height="17.77"/><rect class="cls-1" x="837.68" y="487.53" width="17.77" height="17.77"/><rect class="cls-2" x="837.68" y="487.53" width="17.77" height="17.77"/><rect class="cls-1" x="837.68" y="505.3" width="17.77" height="17.77"/><rect class="cls-2" x="837.68" y="505.3" width="17.77" height="17.77"/><rect class="cls-1" x="837.68" y="523.07" width="17.77" height="17.77"/><rect class="cls-2" x="837.68" y="523.07" width="17.77" height="17.77"/><rect class="cls-1" x="837.68" y="540.84" width="17.77" height="17.77"/><rect class="cls-2" x="837.68" y="540.84" width="17.77" height="17.77"/><rect class="cls-1" x="837.68" y="558.61" width="17.77" height="17.77"/><rect class="cls-2" x="837.68" y="558.61" width="17.77" height="17.77"/><rect class="cls-1" x="837.68" y="576.38" width="17.77" height="17.77"/><rect class="cls-2" x="837.68" y="576.38" width="17.77" height="17.77"/><rect class="cls-1" x="837.68" y="594.16" width="17.77" height="17.77"/><rect class="cls-2" x="837.68" y="594.16" width="17.77" height="17.77"/><rect class="cls-1" x="837.68" y="611.93" width="17.77" height="17.77"/><rect class="cls-2" x="837.68" y="611.93" width="17.77" height="17.77"/><rect class="cls-1" x="837.68" y="629.7" width="17.77" height="17.77"/><rect class="cls-2" x="837.68" y="629.7" width="17.77" height="17.77"/><rect class="cls-1" x="837.68" y="647.47" width="17.77" height="17.77"/><rect class="cls-2" x="837.68" y="647.47" width="17.77" height="17.77"/><rect class="cls-1" x="819.91" y="487.53" width="17.77" height="17.77"/><rect class="cls-2" x="819.91" y="487.53" width="17.77" height="17.77"/><rect class="cls-1" x="819.91" y="505.3" width="17.77" height="17.77"/><rect class="cls-2" x="819.91" y="505.3" width="17.77" height="17.77"/><rect class="cls-1" x="819.91" y="523.07" width="17.77" height="17.77"/><rect class="cls-2" x="819.91" y="523.07" width="17.77" height="17.77"/><rect class="cls-1" x="819.91" y="540.84" width="17.77" height="17.77"/><rect class="cls-2" x="819.91" y="540.84" width="17.77" height="17.77"/><rect class="cls-1" x="819.91" y="558.61" width="17.77" height="17.77"/><rect class="cls-2" x="819.91" y="558.61" width="17.77" height="17.77"/><rect class="cls-1" x="819.91" y="576.38" width="17.77" height="17.77"/><rect class="cls-2" x="819.91" y="576.38" width="17.77" height="17.77"/><rect class="cls-1" x="819.91" y="594.16" width="17.77" height="17.77"/><rect class="cls-2" x="819.91" y="594.16" width="17.77" height="17.77"/><rect class="cls-1" x="819.91" y="611.93" width="17.77" height="17.77"/><rect class="cls-2" x="819.91" y="611.93" width="17.77" height="17.77"/><rect class="cls-1" x="819.91" y="629.7" width="17.77" height="17.77"/><rect class="cls-2" x="819.91" y="629.7" width="17.77" height="17.77"/><rect class="cls-1" x="819.91" y="647.47" width="17.77" height="17.77"/><rect class="cls-2" x="819.91" y="647.47" width="17.77" height="17.77"/><rect class="cls-1" x="802.14" y="487.53" width="17.77" height="17.77"/><rect class="cls-2" x="802.14" y="487.53" width="17.77" height="17.77"/><rect class="cls-1" x="802.14" y="505.3" width="17.77" height="17.77"/><rect class="cls-2" x="802.14" y="505.3" width="17.77" height="17.77"/><rect class="cls-1" x="802.14" y="523.07" width="17.77" height="17.77"/><rect class="cls-2" x="802.14" y="523.07" width="17.77" height="17.77"/><rect class="cls-1" x="802.14" y="540.84" width="17.77" height="17.77"/><rect class="cls-2" x="802.14" y="540.84" width="17.77" height="17.77"/><rect class="cls-1" x="802.14" y="558.61" width="17.77" height="17.77"/><rect class="cls-2" x="802.14" y="558.61" width="17.77" height="17.77"/><rect class="cls-1" x="802.14" y="576.38" width="17.77" height="17.77"/><rect class="cls-2" x="802.14" y="576.38" width="17.77" height="17.77"/><rect class="cls-1" x="802.14" y="594.16" width="17.77" height="17.77"/><rect class="cls-2" x="802.14" y="594.16" width="17.77" height="17.77"/><rect class="cls-1" x="802.14" y="611.93" width="17.77" height="17.77"/><rect class="cls-2" x="802.14" y="611.93" width="17.77" height="17.77"/><rect class="cls-1" x="802.14" y="629.7" width="17.77" height="17.77"/><rect class="cls-2" x="802.14" y="629.7" width="17.77" height="17.77"/><rect class="cls-1" x="802.14" y="647.47" width="17.77" height="17.77"/><rect class="cls-2" x="802.14" y="647.47" width="17.77" height="17.77"/></g><path class="cls-8" d="M868.95,663.81a19.38,19.38,0,0,1-3.53-.33,19,19,0,0,1-12.3-8L819,605.93A19.16,19.16,0,0,1,824,579.29l119.95-82.46a19.16,19.16,0,0,1,26.65,4.94l34.07,49.56A19.16,19.16,0,0,1,999.71,578L879.76,660.43A19,19,0,0,1,868.95,663.81Zm85.8-166.62a15.31,15.31,0,0,0-8.7,2.72L826.1,582.37a15.42,15.42,0,0,0-4,21.44l34.07,49.56a15.42,15.42,0,0,0,21.44,4l119.95-82.46a15.42,15.42,0,0,0,4-21.44l-34.07-49.56a15.32,15.32,0,0,0-9.9-6.43A15.56,15.56,0,0,0,954.75,497.19Z"/><rect class="cls-7" x="874.08" y="513.68" width="79.53" height="127.15" transform="translate(871.84 -502.83) rotate(55.49)"/><path class="cls-8" d="M883.51,648.64,836.33,580l107.86-74.15,47.18,68.62Zm-42-67.66,42.94,62.46,101.69-69.91-42.94-62.46Z"/><circle class="cls-7" cx="850.31" cy="620.61" r="6.47" transform="translate(-201.97 590.89) rotate(-34.51)"/><path class="cls-8" d="M850.33,629a8.43,8.43,0,0,1-1.54-.14,8.35,8.35,0,1,1,6.25-1.33h0A8.28,8.28,0,0,1,850.33,629Zm0-12.95a4.6,4.6,0,1,0,2.61,8.39h0A4.6,4.6,0,0,0,850.3,616Z"/><rect class="cls-8" x="920.48" y="504.75" width="3.74" height="132.62" transform="translate(314.07 1469.3) rotate(-87.66)"/><circle class="cls-7" cx="968.83" cy="525.3" r="2.27" transform="translate(-127.13 641.27) rotate(-34.51)"/><path class="cls-8" d="M968.84,528.81a3.51,3.51,0,1,1,2-.62h0A3.49,3.49,0,0,1,968.84,528.81Zm0-4.53a1,1,0,1,0,.58,1.86h0a1,1,0,0,0-.39-1.84Z"/><rect class="cls-7" x="968.02" y="536.58" width="19.54" height="3.52" rx="1.25" ry="1.25" transform="translate(867.49 -572.39) rotate(55.49)"/><path class="cls-8" d="M982.34,547.95a3.06,3.06,0,0,1-.55-.05,3,3,0,0,1-1.93-1.25l-9.07-13.2a3,3,0,1,1,5-3.41l9.07,13.2a3,3,0,0,1-2.47,4.71Zm-9.08-16.72a.51.51,0,0,0-.29.09.51.51,0,0,0-.13.71l9.07,13.2a.51.51,0,0,0,.85-.58l-9.07-13.2a.51.51,0,0,0-.33-.21Z"/></g><path class="cls-10" d="M805.44,323.88v170a21.26,21.26,0,0,1-21.26,21.26H491.23A21.26,21.26,0,0,1,470,493.86V324.72"/><path class="cls-11" d="M787.31,527.42H488.09A18.12,18.12,0,0,1,470,509.3V314.15a20.39,20.39,0,0,1,20.39-20.39h297a18.12,18.12,0,0,1,18.12,18.12V509.3A18.12,18.12,0,0,1,787.31,527.42Z"/><path class="cls-7" d="M667.7,516.17h0c0,2.8-1.45,5.06-3.23,5.06H610.93c-1.78,0-3.23-2.27-3.23-5.06h0"/><path class="cls-8" d="M787.31,291.25h-297a22.92,22.92,0,0,0-22.89,22.89V509.3a20.65,20.65,0,0,0,20.62,20.62H787.31a20.65,20.65,0,0,0,20.62-20.62V311.87A20.65,20.65,0,0,0,787.31,291.25Zm15.62,218a15.64,15.64,0,0,1-15.62,15.62H488.09a15.64,15.64,0,0,1-15.62-15.62h0a25.34,25.34,0,0,0,19.44,9H607c.59,2.33,2.12,4,4,4h53.54c1.85,0,3.38-1.63,4-4H782.56c10.74,0,16.94-5.4,20.38-10.35Zm-193.88,9h57.29c-.43,1.2-1.17,2-1.88,2H610.93C610.23,520.23,609.48,519.48,609.06,518.28Zm193.88-16.47c-1.93,4.54-7.37,13.47-20.37,13.47H491.9c-8.72,0-16.57-5-19.44-11.66V314.15a17.91,17.91,0,0,1,17.89-17.89h297a15.64,15.64,0,0,1,15.62,15.62Z"/><g id="tbhMf8"><path class="cls-7" d="M627.85,382.83a10.19,10.19,0,0,1,3.2.61q1.14.34,2.27.72a10.52,10.52,0,0,0,7.17-.15c1-.35,2-.58,3-.92,2.37-.84,4.33,0,6,1.58a29.69,29.69,0,0,1,7.27,11.39,29.25,29.25,0,0,1,1.94,10.65c-.08,4.52-1.36,8.62-4.74,11.81a10.69,10.69,0,0,1-10.77,2.87c-1.5-.42-3-.91-4.44-1.42a4.18,4.18,0,0,0-3,.12c-2.85,1.11-5.74,2.07-8.88,1.83a11.38,11.38,0,0,1-8.4-4.43c-.46-.58-.38-.91.23-1.3,6.83-4.28,6.32-15.35-1.23-19.22-.62-.32-.83-.63-.57-1.34a27.79,27.79,0,0,1,7.09-11.07A5.08,5.08,0,0,1,627.85,382.83Z"/><path class="cls-7" d="M637.83,423.83a10.24,10.24,0,0,1-2.35,5.9,11.32,11.32,0,0,1-7,4.53c-1.16.21-1.38,0-1.32-1.13a12,12,0,0,1,6.05-10,6.85,6.85,0,0,1,3.13-.92C637.62,422.14,637.84,422.37,637.83,423.83Z"/></g><g id="Mouse_Icon" data-name="Mouse Icon"><g id="Mouse_Icon-2" data-name="Mouse Icon"><g id="Mouse_Icon-3" data-name="Mouse Icon"><path class="cls-12" d="M927.84,431.06l-20.22,3.62a25,25,0,0,1-29-20.21l-10.76-60.19a25,25,0,0,1,20.21-29l20.22-3.62a25,25,0,0,1,29,20.21L948,402A25,25,0,0,1,927.84,431.06Z"/><path class="cls-8" d="M903.16,437.07a27,27,0,0,1-26.52-22.25l-10.76-60.19A27,27,0,0,1,887.7,323.3l20.22-3.62a27,27,0,0,1,31.33,21.83L950,401.7A27,27,0,0,1,928.19,433h0L908,436.64A27.3,27.3,0,0,1,903.16,437.07Zm9.53-113.81a23,23,0,0,0-4.06.36l-20.22,3.62a23,23,0,0,0-18.59,26.69l10.76,60.19a23,23,0,0,0,26.69,18.59l20.23-3.62h0a23,23,0,0,0,18.59-26.69l-10.76-60.19A23,23,0,0,0,912.69,323.26Z"/><rect class="cls-8" x="901.31" y="319.13" width="3" height="55.91" transform="translate(-47 164.33) rotate(-10.14)"/><rect class="cls-7" x="895.53" y="335.26" width="13.4" height="21.87" rx="4.75" ry="4.75" transform="translate(-46.85 164.22) rotate(-10.14)"/><path class="cls-8" d="M901.38,358.87a6.25,6.25,0,0,1-6.14-5.15l-2.18-12.18a6.25,6.25,0,0,1,5.05-7.25l3.84-.69a6.25,6.25,0,0,1,7.25,5.05l2.18,12.17a6.26,6.26,0,0,1-5.05,7.25l-3.84.69A6.32,6.32,0,0,1,901.38,358.87Zm1.69-22.36a3.29,3.29,0,0,0-.58.05l-3.84.69A3.25,3.25,0,0,0,896,341l2.18,12.18a3.25,3.25,0,0,0,3.77,2.63l3.84-.69a3.25,3.25,0,0,0,2.63-3.77l-2.18-12.18a3.25,3.25,0,0,0-3.19-2.68Z"/><rect class="cls-8" x="896.99" y="347.92" width="12.35" height="1" transform="translate(-47.18 164.19) rotate(-10.12)"/><rect class="cls-8" x="897.74" y="352.11" width="12.35" height="1" transform="translate(-47.91 164.39) rotate(-10.12)"/><rect class="cls-8" x="896.24" y="343.73" width="12.35" height="1" transform="translate(-46.46 164) rotate(-10.12)"/><rect class="cls-8" x="895.49" y="339.53" width="12.35" height="1" transform="translate(-45.73 163.8) rotate(-10.12)"/><path class="cls-8" d="M934.65,369.89l7.41-1.33-.53-3-7.12,1.27c-1.4-18.35-2.35-37.49-2.37-37.82l-3,.15c.07,1.35,1,20.15,2.39,38.2l-49.07,8.77c-4.83-17.49-10.32-35.53-10.72-36.82l-2.87.88c.1.32,5.7,18.7,10.61,36.48L872.09,378l.53,3,7.58-1.35c3.26,11.92,6.05,23.11,6.48,27.81.85,9.34,17.29,27.94,18,28.73l2.24-2c-4.58-5.16-16.61-20.07-17.24-27-.44-4.88-3.23-16.11-6.49-28.07l48.51-8.67c1,12.35,2.19,23.88,3.47,28.61,2.2,8.17-4.54,30.36-4.61,30.58l2.87.88c.29-.94,7.06-23.25,4.64-32.24C936.82,393.69,935.64,382.21,934.65,369.89Z"/></g><rect class="cls-8" x="894.15" y="312.02" width="6.64" height="10.41" transform="translate(-41.83 162.93) rotate(-10.14)"/><path class="cls-8" d="M442.31,359.67a58.53,58.53,0,0,1-58.52-59.53c.53-31.72,27.2-57.53,59.45-57.53H569a24,24,0,0,0,24-23.91l-.23-2.13a36.34,36.34,0,1,1,72.45-3.94v11.8a48.7,48.7,0,0,0,97.41,0V202.93a68.2,68.2,0,0,1,136.4,0l0,.28c-.11.8-10.47,80.26.9,114l-4,1.35c-4.92-14.6-6.59-38.57-5-71.23,1.15-23.15,3.63-42.68,3.88-44.53a64,64,0,0,0-127.93.14v21.51a52.94,52.94,0,0,1-105.87,0v-11.8a32.12,32.12,0,1,0-64,3.49l.25,2.47A28.28,28.28,0,0,1,569,246.85H443.24c-30,0-54.72,23.94-55.21,53.37a54.29,54.29,0,0,0,54.29,55.22Z"/></g><rect class="cls-8" x="446.32" y="349.78" width="24.42" height="15.55" rx="2.59" ry="2.59"/><rect class="cls-8" x="439.29" y="353.19" width="11.29" height="7.79"/><rect class="cls-11" x="440.23" y="354.13" width="0.46" height="5.91"/><rect class="cls-11" x="441.4" y="354.13" width="0.46" height="5.91"/><rect class="cls-11" x="442.57" y="354.13" width="0.46" height="5.91"/><rect class="cls-11" x="443.75" y="354.13" width="0.46" height="5.91"/><rect class="cls-11" x="444.92" y="354.13" width="0.46" height="5.91"/></g><path class="cls-8" d="M445.29,445.68l0,0-.19.27-.6.62a1.16,1.16,0,0,1-.55.26,2.22,2.22,0,0,1-1.38-.57c-.91-1.46-5-7.53-12.1-9.32-4.73-1.2-9.67-.22-14.68,2.9a19.91,19.91,0,0,0-6.34,27.42l1.33,2a41.11,41.11,0,1,1-69.78,43.48l-55.84-89.62a53.49,53.49,0,0,1,90.75-56.63c.47.9,4.78,9,6.4,11.64a24.59,24.59,0,1,0,41.75-26L420.2,346l-3.59,2.24,3.81,6.11a20.35,20.35,0,0,1,.76,20.14,16.51,16.51,0,0,0-13-17.5l-.88,4.14a12.26,12.26,0,0,1,2.37,23.23v0a20.39,20.39,0,0,1-23.81-8.52c-1.58-2.54-6.22-11.34-6.27-11.43l-.08-.13a57.72,57.72,0,1,0-98,61L337.35,515a45.34,45.34,0,1,0,76.94-48L413,465a15.67,15.67,0,0,1,5-21.56c4-2.49,7.82-3.29,11.38-2.4,6.1,1.53,9.64,7.57,9.68,7.63l.13.23.19.19a6.57,6.57,0,0,0,4.94,2,5.36,5.36,0,0,0,2.82-1.17h0l.11-.12a7.53,7.53,0,0,0,1.18-1.25c3.29-3.31,10.29-8.67,20.85-2.94l2-3.72C464.66,438.23,454.91,436.15,445.29,445.68Z"/><path class="cls-11" d="M420,346.39,408.58,328l-3.42,2.13,11.44,18.36a.36.36,0,0,0,.49.11l2.81-1.75A.36.36,0,0,0,420,346.39Z"/><path class="cls-11" d="M416.19,340.45l-3.24,2a1.12,1.12,0,0,1-1.54-.36l-11-17.71,5.14-3.2,11,17.71A1.12,1.12,0,0,1,416.19,340.45Z"/><path class="cls-11" d="M386.66,304.69a13.38,13.38,0,0,0-6.3,10.79l8,12.86a13.4,13.4,0,1,0-1.71-23.65Z"/><rect class="cls-7" x="383.67" y="313.27" width="4.41" height="13.77" rx="1.3" ry="1.3" transform="translate(-110.93 252.47) rotate(-31.92)"/><rect class="cls-1" x="415.27" y="341.65" width="2.53" height="5.92" transform="translate(-119.22 272.31) rotate(-31.92)"/><path class="cls-1" d="M389.86,324.26l-5.91-9.48a.3.3,0,0,0-.41-.1l-1.54,1a.3.3,0,0,0-.1.41l5.91,9.48a.3.3,0,0,0,.41.09l1.54-1A.3.3,0,0,0,389.86,324.26Z"/><path class="cls-1" d="M404,323a12.39,12.39,0,1,0-22.37-9.52l.85-.53a2.3,2.3,0,0,1,3.17.73l5.91,9.48a2.3,2.3,0,0,1-.73,3.17h0l-1.54,1a2.26,2.26,0,0,1-.27.12l.06.09a12.41,12.41,0,0,0,11.25-.95l.38-.26A12.48,12.48,0,0,0,404,323Z"/><path class="cls-8" d="M420.65,346l-3.45-5.54a1.82,1.82,0,0,0,0-1.94L406.88,322a14.4,14.4,0,1,0-27.52-6.54v.31l.85,1.36h0l5.91,9.48h0l1.58,2.54.28.12a14.41,14.41,0,0,0,13.39-1l.38-.26,9,14.49a1.88,1.88,0,0,0,1.59.88l.14,0,3.45,5.54a1.11,1.11,0,0,0,1.53.35l2.81-1.75A1.11,1.11,0,0,0,420.65,346ZM388,325.67a.3.3,0,0,1-.19-.13L381.9,316a.3.3,0,0,1,.1-.41l1.54-1a.3.3,0,0,1,.41.1l5.91,9.48a.3.3,0,0,1-.1.41l-1.54,1A.3.3,0,0,1,388,325.67Zm12.7.66-.38.26a12.41,12.41,0,0,1-11.25.95l-.06-.09a2.26,2.26,0,0,0,.27-.12l1.54-1h0a2.3,2.3,0,0,0,.73-3.17l-5.91-9.48a2.3,2.3,0,0,0-3.17-.73l-.85.53a12.39,12.39,0,1,1,19.06,12.82Zm11.59,15.56a.37.37,0,0,1-.23-.16l-7.51-12.05L403,327.12a14.28,14.28,0,0,0,3.11-3.62l2.34,3.75,7.51,12.05a.37.37,0,0,1-.12.51l-.55.34-2.15,1.34-.55.34A.37.37,0,0,1,412.28,341.88Zm4.75,5.91-3.13-5,2.15-1.34,3.13,5Z"/><rect class="cls-7" x="397.94" y="308.44" width="2.72" height="8.61" rx="0.97" ry="0.97" transform="translate(453.61 -191.54) rotate(58.08)"/><path class="cls-8" d="M396.68,316.31a1.47,1.47,0,0,1-1.25-.69h0L395,315a1.46,1.46,0,0,1,.47-2l5.67-3.53a1.46,1.46,0,0,1,2,.47l.42.67a1.46,1.46,0,0,1-.47,2l-5.67,3.53A1.45,1.45,0,0,1,396.68,316.31Zm-.4-1.22a.47.47,0,0,0,.64.15l5.67-3.53a.46.46,0,0,0,.15-.64l-.42-.67a.46.46,0,0,0-.29-.21.47.47,0,0,0-.35.06L396,313.78a.46.46,0,0,0-.15.64Z"/><path class="cls-13" d="M408.48,361.32l-19.16-10,1.87-3.57,19.16,10a.36.36,0,0,1,.15.48L409,361.17A.36.36,0,0,1,408.48,361.32Z"/><path class="cls-13" d="M402.28,358l1.77-3.38a1.12,1.12,0,0,0-.47-1.51l-18.49-9.67-2.81,5.37,18.49,9.67A1.12,1.12,0,0,0,402.28,358Z"/><path class="cls-13" d="M364.39,331.2a13.38,13.38,0,0,1,10.28-7.09l13.43,7a13.4,13.4,0,1,1-23.71.07Z"/><rect class="cls-7" x="377.55" y="322.37" width="4.41" height="13.77" rx="1.3" ry="1.3" transform="translate(847.51 145.35) rotate(117.61)"/><rect class="cls-1" x="405.18" y="355.02" width="2.53" height="5.92" transform="translate(-99.12 552.29) rotate(-62.4)"/><path class="cls-1" d="M384.14,332.91l-9.9-5.18a.3.3,0,0,1-.13-.4l.84-1.61a.3.3,0,0,1,.4-.13l9.9,5.18a.3.3,0,0,1,.13.4l-.84,1.61A.3.3,0,0,1,384.14,332.91Z"/><path class="cls-1" d="M384,347.11a12.39,12.39,0,1,1-11.17-21.6l-.46.89a2.3,2.3,0,0,0,1,3.1l9.9,5.18a2.3,2.3,0,0,0,3.1-1h0l.84-1.61a2.26,2.26,0,0,0,.1-.28l.1.05a12.41,12.41,0,0,1-.1,11.29c-.07.14-.16.26-.23.4a12.48,12.48,0,0,1-3,3.55Z"/><path class="cls-8" d="M409.63,361.52l1.54-2.94a1.11,1.11,0,0,0-.47-1.5l-5.79-3s0-.09,0-.14a1.88,1.88,0,0,0-1-1.52l-15.12-7.91c.08-.13.16-.26.23-.4a14.41,14.41,0,0,0,0-13.42l-.15-.27L386.19,329h0l-9.9-5.18h0l-1.42-.74-.31,0a14.4,14.4,0,1,0,8.59,26.95l17.27,9a1.82,1.82,0,0,0,1.93-.13l5.78,3A1.11,1.11,0,0,0,409.63,361.52Zm-24.24-30.34-.84,1.61a.3.3,0,0,1-.4.13l-9.9-5.18a.3.3,0,0,1-.13-.4l.84-1.61a.3.3,0,0,1,.4-.13l9.9,5.18a.3.3,0,0,1,.13.4Zm.81,13.65a12.43,12.43,0,0,1-15.68,3.58,12.39,12.39,0,0,1,2.29-22.89l-.46.89a2.3,2.3,0,0,0,1,3.1l9.9,5.18a2.3,2.3,0,0,0,3.1-1h0l.84-1.61a2.26,2.26,0,0,0,.1-.28l.1.05a12.41,12.41,0,0,1-.1,11.29c-.07.14-.16.26-.23.4A12.39,12.39,0,0,1,386.2,344.82Zm17.18,9.4-.3.57L401.91,357l-.3.57a.37.37,0,0,1-.5.16l-12.58-6.58-3.92-2a14.28,14.28,0,0,0,3.38-3.38l2.65,1.39,12.58,6.58a.37.37,0,0,1,.18.22A.37.37,0,0,1,403.38,354.23Zm5.1,6.25-5.24-2.74,1.17-2.24,5.24,2.74Z"/><rect class="cls-7" x="372.02" y="338.89" width="2.72" height="8.61" rx="0.97" ry="0.97" transform="matrix(0.89, 0.46, -0.46, 0.89, 201.58, -133.96)"/><path class="cls-8" d="M376.57,341.1,373.48,347a1.46,1.46,0,0,1-2,.62l-.7-.37a1.46,1.46,0,0,1-.62-2l3.09-5.92a1.46,1.46,0,0,1,2-.62l.7.37h0a1.47,1.47,0,0,1,.62,2Zm-1.79-1.46a.46.46,0,0,0-.63.2l-3.09,5.92a.47.47,0,0,0,0,.35.46.46,0,0,0,.23.27l.7.37a.46.46,0,0,0,.63-.2l3.09-5.92a.47.47,0,0,0-.2-.63Z"/><path class="cls-7" d="M296.69,394.43l-.26-2.69a.59.59,0,0,0-.65-.53l-7.4.71a.59.59,0,0,0-.53.65l.26,2.69Z"/><path class="cls-7" d="M288.31,397.28l.26,2.69a.59.59,0,0,0,.64.53l7.4-.71a.59.59,0,0,0,.53-.64l-.26-2.69Z"/><path class="cls-2" d="M306.72,489.39,305.35,475,304,460.58l-1.38-14.41-1.38-14.41-1.38-14.41-1.38-14.41,0-.27-2.4.23-8,.77,0,.27,1.38,14.41,1.38,14.41,1.38,14.41,1.38,14.41L294.94,476l1.38,14.41.8,8.33a6.29,6.29,0,0,1,1.67-.4l6.31-.6.7-.07a6.29,6.29,0,0,1,1.72.07Z"/><path class="cls-7" d="M313.19,542.46l-3.74-39.18a2.72,2.72,0,0,0-.1-.51,3,3,0,0,0-3.25-2.09l-7,.67a3,3,0,0,0-2.79,2.67,2.72,2.72,0,0,0,0,.52L300,543.72Z"/><path class="cls-2" d="M314.85,547.06l0-.19-4.51,5.47-8.42,10.2-.79,1a1,1,0,0,1-.13.1,3.81,3.81,0,0,0,3.68,1.72l6.83-.65,1.23-.12a3.6,3.6,0,0,0,3.45-3.37c0-.08,0-.17,0-.25Z"/><polygon class="cls-2" points="309.7 545.86 299.1 546.87 299.23 548.26 299.26 548.55 300.46 561.1 310.05 549.48 312.07 547.04 313.33 545.51 309.7 545.86"/><path class="cls-8" d="M319.21,560.64l-1.78-18.58-1.21.12L312.48,503a5.82,5.82,0,0,0-1.74-3.62l-9.56-100-1,.1a3.61,3.61,0,0,0,0-.59l-.71-7.4a3.64,3.64,0,0,0-4-3.28l-7.4.71a3.64,3.64,0,0,0-3.28,4l.71,7.4a3.61,3.61,0,0,0,.12.58l-.94.09,9.56,100a5.82,5.82,0,0,0-1,3.88L297,544l-1.21.12,1.09,11.43-1.89.18a2.12,2.12,0,0,1-2.31-1.9l-2.92-30.53a1.61,1.61,0,0,1,1.45-1.75,1.1,1.1,0,0,1,1.2,1l.24,2.53a1.1,1.1,0,0,1-1,1.2,1,1,0,0,0,.19,2,3.13,3.13,0,0,0,2.82-3.41l-.24-2.53a3.13,3.13,0,0,0-3.41-2.82,3.64,3.64,0,0,0-3.28,4L290.65,554a4.15,4.15,0,0,0,4.52,3.73l1.89-.18.49,5.13a6.6,6.6,0,0,0,7.4,5.64l8.06-.77A6.6,6.6,0,0,0,319.21,560.64Zm-22.06-161.5a.59.59,0,0,1-.53.64l-7.4.71a.59.59,0,0,1-.64-.53l-.26-2.69,8.58-.82Zm-8.75-7.22,7.4-.71a.59.59,0,0,1,.65.53l.26,2.69-8.58.82-.26-2.69A.59.59,0,0,1,288.39,391.92Zm5.17,69.65-1.38-14.41-1.38-14.41-1.38-14.41-1.38-14.41,0-.27,8-.77,2.4-.23,0,.27,1.38,14.41,1.38,14.41,1.38,14.41L304,460.58,305.35,475l1.38,14.41.8,8.33a6.29,6.29,0,0,0-1.72-.07l-.7.07-6.31.6a6.29,6.29,0,0,0-1.67.4l-.8-8.33L294.94,476Zm2.71,43a2.72,2.72,0,0,1,0-.52,3,3,0,0,1,2.79-2.67l7-.67a3,3,0,0,1,3.25,2.09,2.72,2.72,0,0,1,.1.51l3.74,39.18L300,543.72Zm3,44,0-.29-.13-1.39,10.6-1,3.63-.35L312.07,547l-2,2.45-9.59,11.61Zm16.91,12.63a3.6,3.6,0,0,1-3.45,3.37l-1.23.12-6.83.65a3.81,3.81,0,0,1-3.68-1.72,1,1,0,0,0,.13-.1l.79-1,8.42-10.2,4.51-5.47,0,.19,1.32,13.87C316.18,561,316.17,561.1,316.17,561.18Z"/><path class="cls-11" d="M349.56,175.5,325,181.41l-4.21-17.51L345.35,158a6.38,6.38,0,0,1,7.7,4.71l1.23,5.1A6.38,6.38,0,0,1,349.56,175.5Z"/><circle class="cls-11" cx="278.92" cy="182.36" r="45.75" transform="translate(-26.29 48.58) rotate(-9.51)"/><path class="cls-1" d="M322.57,175a44.5,44.5,0,0,0-3.28-10.85A44.32,44.32,0,0,0,279,138.09a44.82,44.82,0,0,0-7.41.62,44.26,44.26,0,1,0,51.5,41.38A45,45,0,0,0,322.57,175Z"/><path class="cls-1" d="M351.59,163.05a4.88,4.88,0,0,0-5.89-3.6l-22.85,5.5a47,47,0,0,1,3.25,14.66L349.21,174a4.88,4.88,0,0,0,3.6-5.89Z"/><path class="cls-8" d="M355.73,167.45l-1.23-5.1a7.88,7.88,0,0,0-9.51-5.82l-23.37,5.62a47.25,47.25,0,1,0,4.54,20.52L349.91,177a7.88,7.88,0,0,0,5.82-9.51ZM315,208a44.25,44.25,0,1,1-43.34-69.34,44.82,44.82,0,0,1,7.41-.62,44.32,44.32,0,0,1,40.27,26.1A44.5,44.5,0,0,1,322.57,175a45,45,0,0,1,.54,5A43.91,43.91,0,0,1,315,208Zm37.28-36.2a4.85,4.85,0,0,1-3,2.2l-23.12,5.56a47,47,0,0,0-3.25-14.66l22.85-5.5a4.88,4.88,0,0,1,5.89,3.6l1.23,5.1A4.85,4.85,0,0,1,352.23,171.84Z"/><path class="cls-7" d="M250,193.27l41.71-39A30.59,30.59,0,0,0,279,151.5q-1.16,0-2.32.09a30.86,30.86,0,0,0-28.5,33A31,31,0,0,0,250,193.27Z"/><path class="cls-7" d="M302.29,202.51A30.86,30.86,0,0,0,299.07,159a31.21,31.21,0,0,0-4.5-3.23l-43.25,40.43a30.87,30.87,0,0,0,51,6.32Z"/><path class="cls-8" d="M312.69,179.86a33.86,33.86,0,1,0-33.82,36.35q1.27,0,2.55-.09a33.86,33.86,0,0,0,31.27-36.26Zm-53.92,25.86a30.8,30.8,0,0,1-7.45-9.54l43.25-40.43a31.21,31.21,0,0,1,4.5,3.23,30.86,30.86,0,1,1-40.31,46.73Zm-3.21-43.52a30.65,30.65,0,0,1,21.09-10.62q1.16-.09,2.32-.09a30.59,30.59,0,0,1,12.78,2.79l-41.71,39a31,31,0,0,1-1.9-8.64A30.65,30.65,0,0,1,255.56,162.2Z"/><path class="cls-7" d="M230.32,555l-.29,2.68a.59.59,0,0,0,.53.65l7.39.79a.59.59,0,0,0,.65-.53l.29-2.68Z"/><path class="cls-7" d="M239.11,553.87l.29-2.68a.59.59,0,0,0-.52-.65l-7.39-.79a.59.59,0,0,0-.65.52l-.29,2.68Z"/><path class="cls-2" d="M239.55,459.93,238,474.32l-1.54,14.39-1.54,14.39-1.54,14.39-1.54,14.39-1.54,14.39,0,.27,2.4.26,8,.86,0-.27L242.23,533l1.54-14.39,1.54-14.39,1.54-14.39,1.54-14.39L249.94,461l.89-8.32a6.29,6.29,0,0,1-1.72.06l-6.3-.68-.7-.08a6.29,6.29,0,0,1-1.67-.42Z"/><path class="cls-7" d="M243.86,406.64l-4.19,39.14a2.72,2.72,0,0,0,0,.52,3,3,0,0,0,2.77,2.7l7,.75a3,3,0,0,0,3.27-2.06,2.72,2.72,0,0,0,.11-.5L257,408.05Z"/><path class="cls-2" d="M243.16,401.8l0,.19,5.52-4.45,10.3-8.31,1-.78a1,1,0,0,1,.14-.07A3.81,3.81,0,0,0,256.8,386l-6.83-.73-1.22-.13a3.6,3.6,0,0,0-4.05,2.61c0,.08,0,.16-.06.25Z"/><polygon class="cls-2" points="247.96 404.02 258.55 405.15 258.7 403.76 258.73 403.47 260.07 390.94 248.35 400.4 245.88 402.39 244.34 403.63 247.96 404.02"/><path class="cls-8" d="M241.61,387.63l-2,18.56,1.21.13-4.19,39.14a5.82,5.82,0,0,0,1,3.89l-10.7,99.91,1,.11a3.61,3.61,0,0,0-.12.58l-.79,7.39a3.64,3.64,0,0,0,3.23,4l7.39.79a3.64,3.64,0,0,0,4-3.23l.79-7.39a3.61,3.61,0,0,0,0-.59l.94.1,10.7-99.91a5.82,5.82,0,0,0,1.78-3.6L260,408.38l1.21.13,1.22-11.41,1.89.2a2.12,2.12,0,0,1,1.88,2.33L263,430.12a1.61,1.61,0,0,1-1.77,1.43,1.1,1.1,0,0,1-1-1.21l.27-2.53a1.1,1.1,0,0,1,1.21-1,1,1,0,0,0,.22-2,3.13,3.13,0,0,0-3.45,2.78l-.27,2.53a3.13,3.13,0,0,0,2.78,3.45,3.64,3.64,0,0,0,4-3.23l3.27-30.5a4.15,4.15,0,0,0-3.68-4.56l-1.89-.2.55-5.13a6.6,6.6,0,0,0-6.12-7l-8.05-.86A6.6,6.6,0,0,0,241.61,387.63ZM230.83,550.27a.59.59,0,0,1,.65-.52l7.39.79a.59.59,0,0,1,.52.65l-.29,2.68-8.57-.92ZM238,559.1l-7.39-.79a.59.59,0,0,1-.53-.65l.29-2.68,8.57.92-.29,2.68A.59.59,0,0,1,238,559.1Zm8.91-69.27-1.54,14.39-1.54,14.39L242.23,533l-1.54,14.39,0,.27-8-.86-2.4-.26,0-.27,1.54-14.39,1.54-14.39,1.54-14.39,1.54-14.39L238,474.32l1.54-14.39.89-8.32a6.29,6.29,0,0,0,1.67.42l.7.08,6.3.68a6.29,6.29,0,0,0,1.72-.06l-.89,8.32-1.54,14.39Zm6-42.64a2.72,2.72,0,0,1-.11.5,3,3,0,0,1-3.27,2.06l-7-.75a3,3,0,0,1-2.77-2.7,2.72,2.72,0,0,1,0-.52l4.19-39.14L257,408.05Zm5.91-43.72,0,.29-.15,1.39L248,404l-3.62-.39,1.54-1.24,2.47-2,11.72-9.45Zm-14-15.77a3.6,3.6,0,0,1,4.05-2.61l1.22.13,6.83.73a3.81,3.81,0,0,1,3.26,2.42,1,1,0,0,0-.14.07l-1,.78-10.3,8.31L243.14,402l0-.19L244.64,388C244.65,387.87,244.68,387.79,244.7,387.71Z"/></g></svg>